G04 #@! TF.GenerationSoftware,KiCad,Pcbnew,(5.0.0)*
G04 #@! TF.CreationDate,2019-02-21T00:44:54+09:00*
G04 #@! TF.ProjectId,coaster,636F61737465722E6B696361645F7063,rev?*
G04 #@! TF.SameCoordinates,Original*
G04 #@! TF.FileFunction,Legend,Bot*
G04 #@! TF.FilePolarity,Positive*
%FSLAX46Y46*%
G04 Gerber Fmt 4.6, Leading zero omitted, Abs format (unit mm)*
G04 Created by KiCad (PCBNEW (5.0.0)) date 02/21/19 00:44:54*
%MOMM*%
%LPD*%
G01*
G04 APERTURE LIST*
%ADD10C,0.300000*%
%ADD11C,0.120000*%
%ADD12C,0.150000*%
G04 APERTURE END LIST*
D10*
X159440000Y-106295000D02*
X158725714Y-106295000D01*
X159582857Y-106723571D02*
X159082857Y-105223571D01*
X158582857Y-106723571D01*
X158297142Y-105223571D02*
X157797142Y-106723571D01*
X157297142Y-105223571D01*
X155940000Y-106723571D02*
X156440000Y-106009285D01*
X156797142Y-106723571D02*
X156797142Y-105223571D01*
X156225714Y-105223571D01*
X156082857Y-105295000D01*
X156011428Y-105366428D01*
X155940000Y-105509285D01*
X155940000Y-105723571D01*
X156011428Y-105866428D01*
X156082857Y-105937857D01*
X156225714Y-106009285D01*
X156797142Y-106009285D01*
X155297142Y-106152142D02*
X154154285Y-106152142D01*
X153440000Y-106723571D02*
X153440000Y-105223571D01*
X152797142Y-106652142D02*
X152582857Y-106723571D01*
X152225714Y-106723571D01*
X152082857Y-106652142D01*
X152011428Y-106580714D01*
X151940000Y-106437857D01*
X151940000Y-106295000D01*
X152011428Y-106152142D01*
X152082857Y-106080714D01*
X152225714Y-106009285D01*
X152511428Y-105937857D01*
X152654285Y-105866428D01*
X152725714Y-105795000D01*
X152797142Y-105652142D01*
X152797142Y-105509285D01*
X152725714Y-105366428D01*
X152654285Y-105295000D01*
X152511428Y-105223571D01*
X152154285Y-105223571D01*
X151940000Y-105295000D01*
X151297142Y-106723571D02*
X151297142Y-105223571D01*
X150725714Y-105223571D01*
X150582857Y-105295000D01*
X150511428Y-105366428D01*
X150440000Y-105509285D01*
X150440000Y-105723571D01*
X150511428Y-105866428D01*
X150582857Y-105937857D01*
X150725714Y-106009285D01*
X151297142Y-106009285D01*
X136045000Y-98853571D02*
X135116428Y-98853571D01*
X135616428Y-99425000D01*
X135402142Y-99425000D01*
X135259285Y-99496428D01*
X135187857Y-99567857D01*
X135116428Y-99710714D01*
X135116428Y-100067857D01*
X135187857Y-100210714D01*
X135259285Y-100282142D01*
X135402142Y-100353571D01*
X135830714Y-100353571D01*
X135973571Y-100282142D01*
X136045000Y-100210714D01*
X134687857Y-98853571D02*
X134187857Y-100353571D01*
X133687857Y-98853571D01*
X139116428Y-102903571D02*
X139616428Y-102189285D01*
X139973571Y-102903571D02*
X139973571Y-101403571D01*
X139402142Y-101403571D01*
X139259285Y-101475000D01*
X139187857Y-101546428D01*
X139116428Y-101689285D01*
X139116428Y-101903571D01*
X139187857Y-102046428D01*
X139259285Y-102117857D01*
X139402142Y-102189285D01*
X139973571Y-102189285D01*
X138473571Y-102117857D02*
X137973571Y-102117857D01*
X137759285Y-102903571D02*
X138473571Y-102903571D01*
X138473571Y-101403571D01*
X137759285Y-101403571D01*
X137187857Y-102832142D02*
X136973571Y-102903571D01*
X136616428Y-102903571D01*
X136473571Y-102832142D01*
X136402142Y-102760714D01*
X136330714Y-102617857D01*
X136330714Y-102475000D01*
X136402142Y-102332142D01*
X136473571Y-102260714D01*
X136616428Y-102189285D01*
X136902142Y-102117857D01*
X137045000Y-102046428D01*
X137116428Y-101975000D01*
X137187857Y-101832142D01*
X137187857Y-101689285D01*
X137116428Y-101546428D01*
X137045000Y-101475000D01*
X136902142Y-101403571D01*
X136545000Y-101403571D01*
X136330714Y-101475000D01*
X135687857Y-102117857D02*
X135187857Y-102117857D01*
X134973571Y-102903571D02*
X135687857Y-102903571D01*
X135687857Y-101403571D01*
X134973571Y-101403571D01*
X134545000Y-101403571D02*
X133687857Y-101403571D01*
X134116428Y-102903571D02*
X134116428Y-101403571D01*
X135259285Y-105453571D02*
X135759285Y-104739285D01*
X136116428Y-105453571D02*
X136116428Y-103953571D01*
X135545000Y-103953571D01*
X135402142Y-104025000D01*
X135330714Y-104096428D01*
X135259285Y-104239285D01*
X135259285Y-104453571D01*
X135330714Y-104596428D01*
X135402142Y-104667857D01*
X135545000Y-104739285D01*
X136116428Y-104739285D01*
X134759285Y-103953571D02*
X133759285Y-105453571D01*
X133759285Y-103953571D02*
X134759285Y-105453571D01*
X135973571Y-106503571D02*
X135116428Y-106503571D01*
X135545000Y-108003571D02*
X135545000Y-106503571D01*
X134759285Y-106503571D02*
X133759285Y-108003571D01*
X133759285Y-106503571D02*
X134759285Y-108003571D01*
X136973571Y-109125000D02*
X137116428Y-109053571D01*
X137330714Y-109053571D01*
X137545000Y-109125000D01*
X137687857Y-109267857D01*
X137759285Y-109410714D01*
X137830714Y-109696428D01*
X137830714Y-109910714D01*
X137759285Y-110196428D01*
X137687857Y-110339285D01*
X137545000Y-110482142D01*
X137330714Y-110553571D01*
X137187857Y-110553571D01*
X136973571Y-110482142D01*
X136902142Y-110410714D01*
X136902142Y-109910714D01*
X137187857Y-109910714D01*
X136259285Y-110553571D02*
X136259285Y-109053571D01*
X135402142Y-110553571D01*
X135402142Y-109053571D01*
X134687857Y-110553571D02*
X134687857Y-109053571D01*
X134330714Y-109053571D01*
X134116428Y-109125000D01*
X133973571Y-109267857D01*
X133902142Y-109410714D01*
X133830714Y-109696428D01*
X133830714Y-109910714D01*
X133902142Y-110196428D01*
X133973571Y-110339285D01*
X134116428Y-110482142D01*
X134330714Y-110553571D01*
X134687857Y-110553571D01*
X190301428Y-72005000D02*
X189587142Y-72005000D01*
X190444285Y-72433571D02*
X189944285Y-70933571D01*
X189444285Y-72433571D01*
X189015714Y-71076428D02*
X188944285Y-71005000D01*
X188801428Y-70933571D01*
X188444285Y-70933571D01*
X188301428Y-71005000D01*
X188230000Y-71076428D01*
X188158571Y-71219285D01*
X188158571Y-71362142D01*
X188230000Y-71576428D01*
X189087142Y-72433571D01*
X188158571Y-72433571D01*
X190301428Y-87245000D02*
X189587142Y-87245000D01*
X190444285Y-87673571D02*
X189944285Y-86173571D01*
X189444285Y-87673571D01*
X188230000Y-86173571D02*
X188944285Y-86173571D01*
X189015714Y-86887857D01*
X188944285Y-86816428D01*
X188801428Y-86745000D01*
X188444285Y-86745000D01*
X188301428Y-86816428D01*
X188230000Y-86887857D01*
X188158571Y-87030714D01*
X188158571Y-87387857D01*
X188230000Y-87530714D01*
X188301428Y-87602142D01*
X188444285Y-87673571D01*
X188801428Y-87673571D01*
X188944285Y-87602142D01*
X189015714Y-87530714D01*
X190301428Y-82165000D02*
X189587142Y-82165000D01*
X190444285Y-82593571D02*
X189944285Y-81093571D01*
X189444285Y-82593571D01*
X188301428Y-81593571D02*
X188301428Y-82593571D01*
X188658571Y-81022142D02*
X189015714Y-82093571D01*
X188087142Y-82093571D01*
X190301428Y-77085000D02*
X189587142Y-77085000D01*
X190444285Y-77513571D02*
X189944285Y-76013571D01*
X189444285Y-77513571D01*
X189087142Y-76013571D02*
X188158571Y-76013571D01*
X188658571Y-76585000D01*
X188444285Y-76585000D01*
X188301428Y-76656428D01*
X188230000Y-76727857D01*
X188158571Y-76870714D01*
X188158571Y-77227857D01*
X188230000Y-77370714D01*
X188301428Y-77442142D01*
X188444285Y-77513571D01*
X188872857Y-77513571D01*
X189015714Y-77442142D01*
X189087142Y-77370714D01*
X126178571Y-74176428D02*
X126178571Y-74462142D01*
X126250000Y-74605000D01*
X126392857Y-74747857D01*
X126678571Y-74819285D01*
X127178571Y-74819285D01*
X127464285Y-74747857D01*
X127607142Y-74605000D01*
X127678571Y-74462142D01*
X127678571Y-74176428D01*
X127607142Y-74033571D01*
X127464285Y-73890714D01*
X127178571Y-73819285D01*
X126678571Y-73819285D01*
X126392857Y-73890714D01*
X126250000Y-74033571D01*
X126178571Y-74176428D01*
X127678571Y-75462142D02*
X126178571Y-75462142D01*
X127678571Y-76319285D01*
X126178571Y-76319285D01*
X127107142Y-77033571D02*
X127107142Y-78176428D01*
X126178571Y-79176428D02*
X126178571Y-79462142D01*
X126250000Y-79605000D01*
X126392857Y-79747857D01*
X126678571Y-79819285D01*
X127178571Y-79819285D01*
X127464285Y-79747857D01*
X127607142Y-79605000D01*
X127678571Y-79462142D01*
X127678571Y-79176428D01*
X127607142Y-79033571D01*
X127464285Y-78890714D01*
X127178571Y-78819285D01*
X126678571Y-78819285D01*
X126392857Y-78890714D01*
X126250000Y-79033571D01*
X126178571Y-79176428D01*
X126892857Y-80962142D02*
X126892857Y-80462142D01*
X127678571Y-80462142D02*
X126178571Y-80462142D01*
X126178571Y-81176428D01*
X126892857Y-82247857D02*
X126892857Y-81747857D01*
X127678571Y-81747857D02*
X126178571Y-81747857D01*
X126178571Y-82462142D01*
X174832857Y-118153571D02*
X174832857Y-116653571D01*
X174190000Y-118153571D02*
X174190000Y-117367857D01*
X174261428Y-117225000D01*
X174404285Y-117153571D01*
X174618571Y-117153571D01*
X174761428Y-117225000D01*
X174832857Y-117296428D01*
X173690000Y-117153571D02*
X173118571Y-117153571D01*
X173475714Y-116653571D02*
X173475714Y-117939285D01*
X173404285Y-118082142D01*
X173261428Y-118153571D01*
X173118571Y-118153571D01*
X172832857Y-117153571D02*
X172261428Y-117153571D01*
X172618571Y-116653571D02*
X172618571Y-117939285D01*
X172547142Y-118082142D01*
X172404285Y-118153571D01*
X172261428Y-118153571D01*
X171761428Y-117153571D02*
X171761428Y-118653571D01*
X171761428Y-117225000D02*
X171618571Y-117153571D01*
X171332857Y-117153571D01*
X171190000Y-117225000D01*
X171118571Y-117296428D01*
X171047142Y-117439285D01*
X171047142Y-117867857D01*
X171118571Y-118010714D01*
X171190000Y-118082142D01*
X171332857Y-118153571D01*
X171618571Y-118153571D01*
X171761428Y-118082142D01*
X170475714Y-118082142D02*
X170332857Y-118153571D01*
X170047142Y-118153571D01*
X169904285Y-118082142D01*
X169832857Y-117939285D01*
X169832857Y-117867857D01*
X169904285Y-117725000D01*
X170047142Y-117653571D01*
X170261428Y-117653571D01*
X170404285Y-117582142D01*
X170475714Y-117439285D01*
X170475714Y-117367857D01*
X170404285Y-117225000D01*
X170261428Y-117153571D01*
X170047142Y-117153571D01*
X169904285Y-117225000D01*
X169190000Y-118010714D02*
X169118571Y-118082142D01*
X169190000Y-118153571D01*
X169261428Y-118082142D01*
X169190000Y-118010714D01*
X169190000Y-118153571D01*
X169190000Y-117225000D02*
X169118571Y-117296428D01*
X169190000Y-117367857D01*
X169261428Y-117296428D01*
X169190000Y-117225000D01*
X169190000Y-117367857D01*
X167404285Y-116582142D02*
X168690000Y-118510714D01*
X165832857Y-116582142D02*
X167118571Y-118510714D01*
X164690000Y-117153571D02*
X164690000Y-118367857D01*
X164761428Y-118510714D01*
X164832857Y-118582142D01*
X164975714Y-118653571D01*
X165190000Y-118653571D01*
X165332857Y-118582142D01*
X164690000Y-118082142D02*
X164832857Y-118153571D01*
X165118571Y-118153571D01*
X165261428Y-118082142D01*
X165332857Y-118010714D01*
X165404285Y-117867857D01*
X165404285Y-117439285D01*
X165332857Y-117296428D01*
X165261428Y-117225000D01*
X165118571Y-117153571D01*
X164832857Y-117153571D01*
X164690000Y-117225000D01*
X163975714Y-118153571D02*
X163975714Y-117153571D01*
X163975714Y-116653571D02*
X164047142Y-116725000D01*
X163975714Y-116796428D01*
X163904285Y-116725000D01*
X163975714Y-116653571D01*
X163975714Y-116796428D01*
X163475714Y-117153571D02*
X162904285Y-117153571D01*
X163261428Y-116653571D02*
X163261428Y-117939285D01*
X163190000Y-118082142D01*
X163047142Y-118153571D01*
X162904285Y-118153571D01*
X162404285Y-118153571D02*
X162404285Y-116653571D01*
X161761428Y-118153571D02*
X161761428Y-117367857D01*
X161832857Y-117225000D01*
X161975714Y-117153571D01*
X162190000Y-117153571D01*
X162332857Y-117225000D01*
X162404285Y-117296428D01*
X160404285Y-117153571D02*
X160404285Y-118153571D01*
X161047142Y-117153571D02*
X161047142Y-117939285D01*
X160975714Y-118082142D01*
X160832857Y-118153571D01*
X160618571Y-118153571D01*
X160475714Y-118082142D01*
X160404285Y-118010714D01*
X159690000Y-118153571D02*
X159690000Y-116653571D01*
X159690000Y-117225000D02*
X159547142Y-117153571D01*
X159261428Y-117153571D01*
X159118571Y-117225000D01*
X159047142Y-117296428D01*
X158975714Y-117439285D01*
X158975714Y-117867857D01*
X159047142Y-118010714D01*
X159118571Y-118082142D01*
X159261428Y-118153571D01*
X159547142Y-118153571D01*
X159690000Y-118082142D01*
X158332857Y-118010714D02*
X158261428Y-118082142D01*
X158332857Y-118153571D01*
X158404285Y-118082142D01*
X158332857Y-118010714D01*
X158332857Y-118153571D01*
X156975714Y-118082142D02*
X157118571Y-118153571D01*
X157404285Y-118153571D01*
X157547142Y-118082142D01*
X157618571Y-118010714D01*
X157690000Y-117867857D01*
X157690000Y-117439285D01*
X157618571Y-117296428D01*
X157547142Y-117225000D01*
X157404285Y-117153571D01*
X157118571Y-117153571D01*
X156975714Y-117225000D01*
X156118571Y-118153571D02*
X156261428Y-118082142D01*
X156332857Y-118010714D01*
X156404285Y-117867857D01*
X156404285Y-117439285D01*
X156332857Y-117296428D01*
X156261428Y-117225000D01*
X156118571Y-117153571D01*
X155904285Y-117153571D01*
X155761428Y-117225000D01*
X155690000Y-117296428D01*
X155618571Y-117439285D01*
X155618571Y-117867857D01*
X155690000Y-118010714D01*
X155761428Y-118082142D01*
X155904285Y-118153571D01*
X156118571Y-118153571D01*
X154975714Y-118153571D02*
X154975714Y-117153571D01*
X154975714Y-117296428D02*
X154904285Y-117225000D01*
X154761428Y-117153571D01*
X154547142Y-117153571D01*
X154404285Y-117225000D01*
X154332857Y-117367857D01*
X154332857Y-118153571D01*
X154332857Y-117367857D02*
X154261428Y-117225000D01*
X154118571Y-117153571D01*
X153904285Y-117153571D01*
X153761428Y-117225000D01*
X153690000Y-117367857D01*
X153690000Y-118153571D01*
X151904285Y-116582142D02*
X153190000Y-118510714D01*
X151404285Y-117153571D02*
X151404285Y-118439285D01*
X151475714Y-118582142D01*
X151618571Y-118653571D01*
X151690000Y-118653571D01*
X151404285Y-116653571D02*
X151475714Y-116725000D01*
X151404285Y-116796428D01*
X151332857Y-116725000D01*
X151404285Y-116653571D01*
X151404285Y-116796428D01*
X150690000Y-117153571D02*
X150690000Y-118653571D01*
X150690000Y-117225000D02*
X150547142Y-117153571D01*
X150261428Y-117153571D01*
X150118571Y-117225000D01*
X150047142Y-117296428D01*
X149975714Y-117439285D01*
X149975714Y-117867857D01*
X150047142Y-118010714D01*
X150118571Y-118082142D01*
X150261428Y-118153571D01*
X150547142Y-118153571D01*
X150690000Y-118082142D01*
X149475714Y-116653571D02*
X148547142Y-116653571D01*
X149047142Y-117225000D01*
X148832857Y-117225000D01*
X148690000Y-117296428D01*
X148618571Y-117367857D01*
X148547142Y-117510714D01*
X148547142Y-117867857D01*
X148618571Y-118010714D01*
X148690000Y-118082142D01*
X148832857Y-118153571D01*
X149261428Y-118153571D01*
X149404285Y-118082142D01*
X149475714Y-118010714D01*
X147261428Y-118082142D02*
X147404285Y-118153571D01*
X147690000Y-118153571D01*
X147832857Y-118082142D01*
X147904285Y-118010714D01*
X147975714Y-117867857D01*
X147975714Y-117439285D01*
X147904285Y-117296428D01*
X147832857Y-117225000D01*
X147690000Y-117153571D01*
X147404285Y-117153571D01*
X147261428Y-117225000D01*
X146761428Y-117153571D02*
X146404285Y-118153571D01*
X146047142Y-117153571D02*
X146404285Y-118153571D01*
X146547142Y-118510714D01*
X146618571Y-118582142D01*
X146761428Y-118653571D01*
X144832857Y-118082142D02*
X144975714Y-118153571D01*
X145261428Y-118153571D01*
X145404285Y-118082142D01*
X145475714Y-118010714D01*
X145547142Y-117867857D01*
X145547142Y-117439285D01*
X145475714Y-117296428D01*
X145404285Y-117225000D01*
X145261428Y-117153571D01*
X144975714Y-117153571D01*
X144832857Y-117225000D01*
X143118571Y-116582142D02*
X144404285Y-118510714D01*
X141975714Y-118082142D02*
X142118571Y-118153571D01*
X142404285Y-118153571D01*
X142547142Y-118082142D01*
X142618571Y-118010714D01*
X142690000Y-117867857D01*
X142690000Y-117439285D01*
X142618571Y-117296428D01*
X142547142Y-117225000D01*
X142404285Y-117153571D01*
X142118571Y-117153571D01*
X141975714Y-117225000D01*
X141118571Y-118153571D02*
X141261428Y-118082142D01*
X141332857Y-118010714D01*
X141404285Y-117867857D01*
X141404285Y-117439285D01*
X141332857Y-117296428D01*
X141261428Y-117225000D01*
X141118571Y-117153571D01*
X140904285Y-117153571D01*
X140761428Y-117225000D01*
X140690000Y-117296428D01*
X140618571Y-117439285D01*
X140618571Y-117867857D01*
X140690000Y-118010714D01*
X140761428Y-118082142D01*
X140904285Y-118153571D01*
X141118571Y-118153571D01*
X139332857Y-118153571D02*
X139332857Y-117367857D01*
X139404285Y-117225000D01*
X139547142Y-117153571D01*
X139832857Y-117153571D01*
X139975714Y-117225000D01*
X139332857Y-118082142D02*
X139475714Y-118153571D01*
X139832857Y-118153571D01*
X139975714Y-118082142D01*
X140047142Y-117939285D01*
X140047142Y-117796428D01*
X139975714Y-117653571D01*
X139832857Y-117582142D01*
X139475714Y-117582142D01*
X139332857Y-117510714D01*
X138690000Y-118082142D02*
X138547142Y-118153571D01*
X138261428Y-118153571D01*
X138118571Y-118082142D01*
X138047142Y-117939285D01*
X138047142Y-117867857D01*
X138118571Y-117725000D01*
X138261428Y-117653571D01*
X138475714Y-117653571D01*
X138618571Y-117582142D01*
X138690000Y-117439285D01*
X138690000Y-117367857D01*
X138618571Y-117225000D01*
X138475714Y-117153571D01*
X138261428Y-117153571D01*
X138118571Y-117225000D01*
X137618571Y-117153571D02*
X137047142Y-117153571D01*
X137404285Y-116653571D02*
X137404285Y-117939285D01*
X137332857Y-118082142D01*
X137190000Y-118153571D01*
X137047142Y-118153571D01*
X135975714Y-118082142D02*
X136118571Y-118153571D01*
X136404285Y-118153571D01*
X136547142Y-118082142D01*
X136618571Y-117939285D01*
X136618571Y-117367857D01*
X136547142Y-117225000D01*
X136404285Y-117153571D01*
X136118571Y-117153571D01*
X135975714Y-117225000D01*
X135904285Y-117367857D01*
X135904285Y-117510714D01*
X136618571Y-117653571D01*
X135261428Y-118153571D02*
X135261428Y-117153571D01*
X135261428Y-117439285D02*
X135190000Y-117296428D01*
X135118571Y-117225000D01*
X134975714Y-117153571D01*
X134832857Y-117153571D01*
D11*
G04 #@! TO.C,J2*
X132775000Y-74235000D02*
X131445000Y-74235000D01*
X132775000Y-75565000D02*
X132775000Y-74235000D01*
X130115000Y-76835000D02*
X132775000Y-76835000D01*
X130115000Y-81975000D02*
X130115000Y-76835000D01*
X132775000Y-81975000D02*
X130115000Y-81975000D01*
X132775000Y-76835000D02*
X132775000Y-81975000D01*
G04 #@! TO.C,R18*
X151000000Y-90680000D02*
X152000000Y-90680000D01*
X152000000Y-89320000D02*
X151000000Y-89320000D01*
G04 #@! TO.C,BT1*
X147334630Y-60388211D02*
G75*
G03X144488000Y-64890000I7845370J-8111789D01*
G01*
X163025370Y-76611789D02*
G75*
G03X165872000Y-72110000I-7845370J8111789D01*
G01*
X163025370Y-60388211D02*
G75*
G02X165872000Y-64890000I-7845370J-8111789D01*
G01*
X147334630Y-76611789D02*
G75*
G02X144488000Y-72110000I7845370J8111789D01*
G01*
X140870000Y-66600000D02*
X140870000Y-64890000D01*
X144488000Y-64890000D02*
X140870000Y-64890000D01*
X151320000Y-60390000D02*
X147332700Y-60390000D01*
X153520000Y-62590000D02*
X151320000Y-60390000D01*
X156840000Y-62590000D02*
X153520000Y-62590000D01*
X156840000Y-62590000D02*
X159040000Y-60390000D01*
X163027300Y-60390000D02*
X159040000Y-60390000D01*
X169490000Y-66600000D02*
X169490000Y-64890000D01*
X169490000Y-64890000D02*
X165872000Y-64890000D01*
X165872000Y-72110000D02*
X169490000Y-72110000D01*
X169490000Y-70400000D02*
X169490000Y-72110000D01*
X147332700Y-76610000D02*
X163027300Y-76610000D01*
X140870000Y-70400000D02*
X140870000Y-72110000D01*
X140870000Y-72110000D02*
X144488000Y-72110000D01*
G04 #@! TO.C,C1*
X175860000Y-102712000D02*
X175860000Y-102012000D01*
X174660000Y-102012000D02*
X174660000Y-102712000D01*
G04 #@! TO.C,C2*
X168310000Y-102012000D02*
X168310000Y-102712000D01*
X169510000Y-102712000D02*
X169510000Y-102012000D01*
G04 #@! TO.C,C3*
X154975000Y-90643000D02*
X154975000Y-91343000D01*
X156175000Y-91343000D02*
X156175000Y-90643000D01*
G04 #@! TO.C,CN1*
X157540000Y-111125000D02*
X157540000Y-116265000D01*
X157540000Y-116265000D02*
X152340000Y-116265000D01*
X152340000Y-116265000D02*
X152340000Y-108525000D01*
X152340000Y-108525000D02*
X154940000Y-108525000D01*
X154940000Y-108525000D02*
X154940000Y-111125000D01*
X154940000Y-111125000D02*
X157540000Y-111125000D01*
X157540000Y-109855000D02*
X157540000Y-108525000D01*
X157540000Y-108525000D02*
X156210000Y-108525000D01*
G04 #@! TO.C,J1*
X130115000Y-107950000D02*
X130115000Y-97730000D01*
X130115000Y-97730000D02*
X132775000Y-97730000D01*
X132775000Y-97730000D02*
X132775000Y-107950000D01*
X132775000Y-107950000D02*
X130115000Y-107950000D01*
X130115000Y-109220000D02*
X130115000Y-110550000D01*
X130115000Y-110550000D02*
X131445000Y-110550000D01*
G04 #@! TO.C,R14*
X152000000Y-86320000D02*
X151000000Y-86320000D01*
X151000000Y-87680000D02*
X152000000Y-87680000D01*
G04 #@! TO.C,R15*
X152011000Y-83267000D02*
X151011000Y-83267000D01*
X151011000Y-84627000D02*
X152011000Y-84627000D01*
G04 #@! TO.C,R16*
X152000000Y-84820000D02*
X151000000Y-84820000D01*
X151000000Y-86180000D02*
X152000000Y-86180000D01*
D12*
G04 #@! TO.C,U1*
X166725000Y-82575000D02*
X166725000Y-82800000D01*
X159475000Y-82575000D02*
X159475000Y-82900000D01*
X159475000Y-89825000D02*
X159475000Y-89500000D01*
X166725000Y-89825000D02*
X166725000Y-89500000D01*
X166725000Y-82575000D02*
X166400000Y-82575000D01*
X166725000Y-89825000D02*
X166400000Y-89825000D01*
X159475000Y-89825000D02*
X159800000Y-89825000D01*
X159475000Y-82575000D02*
X159800000Y-82575000D01*
X166725000Y-82800000D02*
X168150000Y-82800000D01*
D11*
G04 #@! TO.C,Y1*
X168385000Y-94201000D02*
X176535000Y-94201000D01*
X176535000Y-94201000D02*
X176535000Y-99601000D01*
X176535000Y-99601000D02*
X168385000Y-99601000D01*
G04 #@! TO.C,R17*
X151000000Y-89180000D02*
X152000000Y-89180000D01*
X152000000Y-87820000D02*
X151000000Y-87820000D01*
G04 #@! TO.C,J2*
D12*
X131778333Y-72687380D02*
X131778333Y-73401666D01*
X131825952Y-73544523D01*
X131921190Y-73639761D01*
X132064047Y-73687380D01*
X132159285Y-73687380D01*
X131349761Y-72782619D02*
X131302142Y-72735000D01*
X131206904Y-72687380D01*
X130968809Y-72687380D01*
X130873571Y-72735000D01*
X130825952Y-72782619D01*
X130778333Y-72877857D01*
X130778333Y-72973095D01*
X130825952Y-73115952D01*
X131397380Y-73687380D01*
X130778333Y-73687380D01*
G04 #@! TO.C,R18*
X148742857Y-90452380D02*
X149076190Y-89976190D01*
X149314285Y-90452380D02*
X149314285Y-89452380D01*
X148933333Y-89452380D01*
X148838095Y-89500000D01*
X148790476Y-89547619D01*
X148742857Y-89642857D01*
X148742857Y-89785714D01*
X148790476Y-89880952D01*
X148838095Y-89928571D01*
X148933333Y-89976190D01*
X149314285Y-89976190D01*
X147790476Y-90452380D02*
X148361904Y-90452380D01*
X148076190Y-90452380D02*
X148076190Y-89452380D01*
X148171428Y-89595238D01*
X148266666Y-89690476D01*
X148361904Y-89738095D01*
X147219047Y-89880952D02*
X147314285Y-89833333D01*
X147361904Y-89785714D01*
X147409523Y-89690476D01*
X147409523Y-89642857D01*
X147361904Y-89547619D01*
X147314285Y-89500000D01*
X147219047Y-89452380D01*
X147028571Y-89452380D01*
X146933333Y-89500000D01*
X146885714Y-89547619D01*
X146838095Y-89642857D01*
X146838095Y-89690476D01*
X146885714Y-89785714D01*
X146933333Y-89833333D01*
X147028571Y-89880952D01*
X147219047Y-89880952D01*
X147314285Y-89928571D01*
X147361904Y-89976190D01*
X147409523Y-90071428D01*
X147409523Y-90261904D01*
X147361904Y-90357142D01*
X147314285Y-90404761D01*
X147219047Y-90452380D01*
X147028571Y-90452380D01*
X146933333Y-90404761D01*
X146885714Y-90357142D01*
X146838095Y-90261904D01*
X146838095Y-90071428D01*
X146885714Y-89976190D01*
X146933333Y-89928571D01*
X147028571Y-89880952D01*
G04 #@! TO.C,BT1*
X155965714Y-60808571D02*
X155822857Y-60856190D01*
X155775238Y-60903809D01*
X155727619Y-60999047D01*
X155727619Y-61141904D01*
X155775238Y-61237142D01*
X155822857Y-61284761D01*
X155918095Y-61332380D01*
X156299047Y-61332380D01*
X156299047Y-60332380D01*
X155965714Y-60332380D01*
X155870476Y-60380000D01*
X155822857Y-60427619D01*
X155775238Y-60522857D01*
X155775238Y-60618095D01*
X155822857Y-60713333D01*
X155870476Y-60760952D01*
X155965714Y-60808571D01*
X156299047Y-60808571D01*
X155441904Y-60332380D02*
X154870476Y-60332380D01*
X155156190Y-61332380D02*
X155156190Y-60332380D01*
X154013333Y-61332380D02*
X154584761Y-61332380D01*
X154299047Y-61332380D02*
X154299047Y-60332380D01*
X154394285Y-60475238D01*
X154489523Y-60570476D01*
X154584761Y-60618095D01*
G04 #@! TO.C,C1*
X174367142Y-102195333D02*
X174414761Y-102147714D01*
X174462380Y-102004857D01*
X174462380Y-101909619D01*
X174414761Y-101766761D01*
X174319523Y-101671523D01*
X174224285Y-101623904D01*
X174033809Y-101576285D01*
X173890952Y-101576285D01*
X173700476Y-101623904D01*
X173605238Y-101671523D01*
X173510000Y-101766761D01*
X173462380Y-101909619D01*
X173462380Y-102004857D01*
X173510000Y-102147714D01*
X173557619Y-102195333D01*
X174462380Y-103147714D02*
X174462380Y-102576285D01*
X174462380Y-102862000D02*
X173462380Y-102862000D01*
X173605238Y-102766761D01*
X173700476Y-102671523D01*
X173748095Y-102576285D01*
G04 #@! TO.C,C2*
X167997142Y-102068333D02*
X168044761Y-102020714D01*
X168092380Y-101877857D01*
X168092380Y-101782619D01*
X168044761Y-101639761D01*
X167949523Y-101544523D01*
X167854285Y-101496904D01*
X167663809Y-101449285D01*
X167520952Y-101449285D01*
X167330476Y-101496904D01*
X167235238Y-101544523D01*
X167140000Y-101639761D01*
X167092380Y-101782619D01*
X167092380Y-101877857D01*
X167140000Y-102020714D01*
X167187619Y-102068333D01*
X167187619Y-102449285D02*
X167140000Y-102496904D01*
X167092380Y-102592142D01*
X167092380Y-102830238D01*
X167140000Y-102925476D01*
X167187619Y-102973095D01*
X167282857Y-103020714D01*
X167378095Y-103020714D01*
X167520952Y-102973095D01*
X168092380Y-102401666D01*
X168092380Y-103020714D01*
G04 #@! TO.C,C3*
X154682142Y-90826333D02*
X154729761Y-90778714D01*
X154777380Y-90635857D01*
X154777380Y-90540619D01*
X154729761Y-90397761D01*
X154634523Y-90302523D01*
X154539285Y-90254904D01*
X154348809Y-90207285D01*
X154205952Y-90207285D01*
X154015476Y-90254904D01*
X153920238Y-90302523D01*
X153825000Y-90397761D01*
X153777380Y-90540619D01*
X153777380Y-90635857D01*
X153825000Y-90778714D01*
X153872619Y-90826333D01*
X153777380Y-91159666D02*
X153777380Y-91778714D01*
X154158333Y-91445380D01*
X154158333Y-91588238D01*
X154205952Y-91683476D01*
X154253571Y-91731095D01*
X154348809Y-91778714D01*
X154586904Y-91778714D01*
X154682142Y-91731095D01*
X154729761Y-91683476D01*
X154777380Y-91588238D01*
X154777380Y-91302523D01*
X154729761Y-91207285D01*
X154682142Y-91159666D01*
G04 #@! TO.C,CN1*
X155630476Y-107882142D02*
X155678095Y-107929761D01*
X155820952Y-107977380D01*
X155916190Y-107977380D01*
X156059047Y-107929761D01*
X156154285Y-107834523D01*
X156201904Y-107739285D01*
X156249523Y-107548809D01*
X156249523Y-107405952D01*
X156201904Y-107215476D01*
X156154285Y-107120238D01*
X156059047Y-107025000D01*
X155916190Y-106977380D01*
X155820952Y-106977380D01*
X155678095Y-107025000D01*
X155630476Y-107072619D01*
X155201904Y-107977380D02*
X155201904Y-106977380D01*
X154630476Y-107977380D01*
X154630476Y-106977380D01*
X153630476Y-107977380D02*
X154201904Y-107977380D01*
X153916190Y-107977380D02*
X153916190Y-106977380D01*
X154011428Y-107120238D01*
X154106666Y-107215476D01*
X154201904Y-107263095D01*
G04 #@! TO.C,J1*
X131778333Y-111002380D02*
X131778333Y-111716666D01*
X131825952Y-111859523D01*
X131921190Y-111954761D01*
X132064047Y-112002380D01*
X132159285Y-112002380D01*
X130778333Y-112002380D02*
X131349761Y-112002380D01*
X131064047Y-112002380D02*
X131064047Y-111002380D01*
X131159285Y-111145238D01*
X131254523Y-111240476D01*
X131349761Y-111288095D01*
G04 #@! TO.C,R14*
X148642857Y-87452380D02*
X148976190Y-86976190D01*
X149214285Y-87452380D02*
X149214285Y-86452380D01*
X148833333Y-86452380D01*
X148738095Y-86500000D01*
X148690476Y-86547619D01*
X148642857Y-86642857D01*
X148642857Y-86785714D01*
X148690476Y-86880952D01*
X148738095Y-86928571D01*
X148833333Y-86976190D01*
X149214285Y-86976190D01*
X147690476Y-87452380D02*
X148261904Y-87452380D01*
X147976190Y-87452380D02*
X147976190Y-86452380D01*
X148071428Y-86595238D01*
X148166666Y-86690476D01*
X148261904Y-86738095D01*
X146833333Y-86785714D02*
X146833333Y-87452380D01*
X147071428Y-86404761D02*
X147309523Y-87119047D01*
X146690476Y-87119047D01*
G04 #@! TO.C,R15*
X148597857Y-84526380D02*
X148931190Y-84050190D01*
X149169285Y-84526380D02*
X149169285Y-83526380D01*
X148788333Y-83526380D01*
X148693095Y-83574000D01*
X148645476Y-83621619D01*
X148597857Y-83716857D01*
X148597857Y-83859714D01*
X148645476Y-83954952D01*
X148693095Y-84002571D01*
X148788333Y-84050190D01*
X149169285Y-84050190D01*
X147645476Y-84526380D02*
X148216904Y-84526380D01*
X147931190Y-84526380D02*
X147931190Y-83526380D01*
X148026428Y-83669238D01*
X148121666Y-83764476D01*
X148216904Y-83812095D01*
X146740714Y-83526380D02*
X147216904Y-83526380D01*
X147264523Y-84002571D01*
X147216904Y-83954952D01*
X147121666Y-83907333D01*
X146883571Y-83907333D01*
X146788333Y-83954952D01*
X146740714Y-84002571D01*
X146693095Y-84097809D01*
X146693095Y-84335904D01*
X146740714Y-84431142D01*
X146788333Y-84478761D01*
X146883571Y-84526380D01*
X147121666Y-84526380D01*
X147216904Y-84478761D01*
X147264523Y-84431142D01*
G04 #@! TO.C,R16*
X148642857Y-85952380D02*
X148976190Y-85476190D01*
X149214285Y-85952380D02*
X149214285Y-84952380D01*
X148833333Y-84952380D01*
X148738095Y-85000000D01*
X148690476Y-85047619D01*
X148642857Y-85142857D01*
X148642857Y-85285714D01*
X148690476Y-85380952D01*
X148738095Y-85428571D01*
X148833333Y-85476190D01*
X149214285Y-85476190D01*
X147690476Y-85952380D02*
X148261904Y-85952380D01*
X147976190Y-85952380D02*
X147976190Y-84952380D01*
X148071428Y-85095238D01*
X148166666Y-85190476D01*
X148261904Y-85238095D01*
X146833333Y-84952380D02*
X147023809Y-84952380D01*
X147119047Y-85000000D01*
X147166666Y-85047619D01*
X147261904Y-85190476D01*
X147309523Y-85380952D01*
X147309523Y-85761904D01*
X147261904Y-85857142D01*
X147214285Y-85904761D01*
X147119047Y-85952380D01*
X146928571Y-85952380D01*
X146833333Y-85904761D01*
X146785714Y-85857142D01*
X146738095Y-85761904D01*
X146738095Y-85523809D01*
X146785714Y-85428571D01*
X146833333Y-85380952D01*
X146928571Y-85333333D01*
X147119047Y-85333333D01*
X147214285Y-85380952D01*
X147261904Y-85428571D01*
X147309523Y-85523809D01*
G04 #@! TO.C,U1*
X163861904Y-79602380D02*
X163861904Y-80411904D01*
X163814285Y-80507142D01*
X163766666Y-80554761D01*
X163671428Y-80602380D01*
X163480952Y-80602380D01*
X163385714Y-80554761D01*
X163338095Y-80507142D01*
X163290476Y-80411904D01*
X163290476Y-79602380D01*
X162290476Y-80602380D02*
X162861904Y-80602380D01*
X162576190Y-80602380D02*
X162576190Y-79602380D01*
X162671428Y-79745238D01*
X162766666Y-79840476D01*
X162861904Y-79888095D01*
G04 #@! TO.C,Y1*
X172561190Y-93177190D02*
X172561190Y-93653380D01*
X172894523Y-92653380D02*
X172561190Y-93177190D01*
X172227857Y-92653380D01*
X171370714Y-93653380D02*
X171942142Y-93653380D01*
X171656428Y-93653380D02*
X171656428Y-92653380D01*
X171751666Y-92796238D01*
X171846904Y-92891476D01*
X171942142Y-92939095D01*
G04 #@! TO.C,R17*
X148642857Y-88952380D02*
X148976190Y-88476190D01*
X149214285Y-88952380D02*
X149214285Y-87952380D01*
X148833333Y-87952380D01*
X148738095Y-88000000D01*
X148690476Y-88047619D01*
X148642857Y-88142857D01*
X148642857Y-88285714D01*
X148690476Y-88380952D01*
X148738095Y-88428571D01*
X148833333Y-88476190D01*
X149214285Y-88476190D01*
X147690476Y-88952380D02*
X148261904Y-88952380D01*
X147976190Y-88952380D02*
X147976190Y-87952380D01*
X148071428Y-88095238D01*
X148166666Y-88190476D01*
X148261904Y-88238095D01*
X147357142Y-87952380D02*
X146690476Y-87952380D01*
X147119047Y-88952380D01*
G04 #@! TD*
M02*
