G04 #@! TF.GenerationSoftware,KiCad,Pcbnew,(5.0.0)*
G04 #@! TF.CreationDate,2019-02-21T00:44:54+09:00*
G04 #@! TF.ProjectId,coaster,636F61737465722E6B696361645F7063,rev?*
G04 #@! TF.SameCoordinates,Original*
G04 #@! TF.FileFunction,Copper,L1,Top,Signal*
G04 #@! TF.FilePolarity,Positive*
%FSLAX46Y46*%
G04 Gerber Fmt 4.6, Leading zero omitted, Abs format (unit mm)*
G04 Created by KiCad (PCBNEW (5.0.0)) date 02/21/19 00:44:54*
%MOMM*%
%LPD*%
G01*
G04 APERTURE LIST*
G04 #@! TA.AperFunction,ComponentPad*
%ADD10O,1.700000X1.700000*%
G04 #@! TD*
G04 #@! TA.AperFunction,ComponentPad*
%ADD11R,1.700000X1.700000*%
G04 #@! TD*
G04 #@! TA.AperFunction,SMDPad,CuDef*
%ADD12R,0.900000X1.200000*%
G04 #@! TD*
G04 #@! TA.AperFunction,SMDPad,CuDef*
%ADD13C,0.900000*%
G04 #@! TD*
G04 #@! TA.AperFunction,Conductor*
%ADD14C,0.100000*%
G04 #@! TD*
G04 #@! TA.AperFunction,SMDPad,CuDef*
%ADD15R,1.200000X0.900000*%
G04 #@! TD*
G04 #@! TA.AperFunction,SMDPad,CuDef*
%ADD16R,0.650000X0.400000*%
G04 #@! TD*
G04 #@! TA.AperFunction,ViaPad*
%ADD17C,0.800000*%
G04 #@! TD*
G04 #@! TA.AperFunction,Conductor*
%ADD18C,0.250000*%
G04 #@! TD*
G04 #@! TA.AperFunction,Conductor*
%ADD19C,0.254000*%
G04 #@! TD*
G04 APERTURE END LIST*
D10*
G04 #@! TO.P,J2,3*
G04 #@! TO.N,+BATT*
X131445000Y-80645000D03*
G04 #@! TO.P,J2,2*
G04 #@! TO.N,Net-(BT1-Pad1)*
X131445000Y-78105000D03*
D11*
G04 #@! TO.P,J2,1*
X131445000Y-75565000D03*
G04 #@! TD*
G04 #@! TO.P,CN1,1*
G04 #@! TO.N,MISO*
X156210000Y-109855000D03*
D10*
G04 #@! TO.P,CN1,2*
G04 #@! TO.N,+BATT*
X153670000Y-109855000D03*
G04 #@! TO.P,CN1,3*
G04 #@! TO.N,SCK*
X156210000Y-112395000D03*
G04 #@! TO.P,CN1,4*
G04 #@! TO.N,MOSI*
X153670000Y-112395000D03*
G04 #@! TO.P,CN1,5*
G04 #@! TO.N,~RESET*
X156210000Y-114935000D03*
G04 #@! TO.P,CN1,6*
G04 #@! TO.N,GND*
X153670000Y-114935000D03*
G04 #@! TD*
D12*
G04 #@! TO.P,D2,1*
G04 #@! TO.N,GND*
X155000000Y-58800000D03*
G04 #@! TO.P,D2,2*
G04 #@! TO.N,Net-(D2-Pad2)*
X155000000Y-61000000D03*
G04 #@! TD*
D13*
G04 #@! TO.P,D4,2*
G04 #@! TO.N,Net-(D4-Pad2)*
X178427336Y-90256297D03*
D14*
G04 #@! TD*
G04 #@! TO.N,Net-(D4-Pad2)*
G04 #@! TO.C,D4*
G36*
X179112122Y-89950409D02*
X178912729Y-90828043D01*
X177742550Y-90562185D01*
X177941943Y-89684551D01*
X179112122Y-89950409D01*
X179112122Y-89950409D01*
G37*
D13*
G04 #@! TO.P,D4,1*
G04 #@! TO.N,GND*
X180572664Y-90743703D03*
D14*
G04 #@! TD*
G04 #@! TO.N,GND*
G04 #@! TO.C,D4*
G36*
X181257450Y-90437815D02*
X181058057Y-91315449D01*
X179887878Y-91049591D01*
X180087271Y-90171957D01*
X181257450Y-90437815D01*
X181257450Y-90437815D01*
G37*
D13*
G04 #@! TO.P,D7,2*
G04 #@! TO.N,Net-(D7-Pad2)*
X131571807Y-89752554D03*
D14*
G04 #@! TD*
G04 #@! TO.N,Net-(D7-Pad2)*
G04 #@! TO.C,D7*
G36*
X131088413Y-90325991D02*
X130885957Y-89449058D01*
X132055201Y-89179117D01*
X132257657Y-90056050D01*
X131088413Y-90325991D01*
X131088413Y-90325991D01*
G37*
D13*
G04 #@! TO.P,D7,1*
G04 #@! TO.N,GND*
X129428193Y-90247446D03*
D14*
G04 #@! TD*
G04 #@! TO.N,GND*
G04 #@! TO.C,D7*
G36*
X128944799Y-90820883D02*
X128742343Y-89943950D01*
X129911587Y-89674009D01*
X130114043Y-90550942D01*
X128944799Y-90820883D01*
X128944799Y-90820883D01*
G37*
D13*
G04 #@! TO.P,D8,1*
G04 #@! TO.N,GND*
X134640327Y-68813732D03*
D14*
G04 #@! TD*
G04 #@! TO.N,GND*
G04 #@! TO.C,D8*
G36*
X133890669Y-68791088D02*
X134452161Y-68087720D01*
X135389985Y-68836376D01*
X134828493Y-69539744D01*
X133890669Y-68791088D01*
X133890669Y-68791088D01*
G37*
D13*
G04 #@! TO.P,D8,2*
G04 #@! TO.N,Net-(D8-Pad2)*
X136359673Y-70186268D03*
D14*
G04 #@! TD*
G04 #@! TO.N,Net-(D8-Pad2)*
G04 #@! TO.C,D8*
G36*
X135610015Y-70163624D02*
X136171507Y-69460256D01*
X137109331Y-70208912D01*
X136547839Y-70912280D01*
X135610015Y-70163624D01*
X135610015Y-70163624D01*
G37*
D15*
G04 #@! TO.P,D12,1*
G04 #@! TO.N,GND*
X156800000Y-74850000D03*
G04 #@! TO.P,D12,2*
G04 #@! TO.N,Net-(D12-Pad2)*
X159000000Y-74850000D03*
G04 #@! TD*
G04 #@! TO.P,D13,1*
G04 #@! TO.N,GND*
X143800000Y-94000000D03*
G04 #@! TO.P,D13,2*
G04 #@! TO.N,Net-(D13-Pad2)*
X146000000Y-94000000D03*
G04 #@! TD*
D12*
G04 #@! TO.P,D10~~1,2*
G04 #@! TO.N,Net-(D10~~1-Pad2)*
X155000000Y-93200000D03*
G04 #@! TO.P,D10~~1,1*
G04 #@! TO.N,GND*
X155000000Y-91000000D03*
G04 #@! TD*
D13*
G04 #@! TO.P,D11~~1,2*
G04 #@! TO.N,Net-(D11~~1-Pad2)*
X162155256Y-80900000D03*
D14*
G04 #@! TD*
G04 #@! TO.N,Net-(D11~~1-Pad2)*
G04 #@! TO.C,D11~~1*
G36*
X161860641Y-81589711D02*
X161410641Y-80810289D01*
X162449871Y-80210289D01*
X162899871Y-80989711D01*
X161860641Y-81589711D01*
X161860641Y-81589711D01*
G37*
D13*
G04 #@! TO.P,D11~~1,1*
G04 #@! TO.N,GND*
X160250000Y-82000000D03*
D14*
G04 #@! TD*
G04 #@! TO.N,GND*
G04 #@! TO.C,D11~~1*
G36*
X159955385Y-82689711D02*
X159505385Y-81910289D01*
X160544615Y-81310289D01*
X160994615Y-82089711D01*
X159955385Y-82689711D01*
X159955385Y-82689711D01*
G37*
D13*
G04 #@! TO.P,D3~~1,2*
G04 #@! TO.N,Net-(D3~~1-Pad2)*
X173140327Y-69686268D03*
D14*
G04 #@! TD*
G04 #@! TO.N,Net-(D3~~1-Pad2)*
G04 #@! TO.C,D3~~1*
G36*
X173328493Y-68960256D02*
X173889985Y-69663624D01*
X172952161Y-70412280D01*
X172390669Y-69708912D01*
X173328493Y-68960256D01*
X173328493Y-68960256D01*
G37*
D13*
G04 #@! TO.P,D3~~1,1*
G04 #@! TO.N,GND*
X174859673Y-68313732D03*
D14*
G04 #@! TD*
G04 #@! TO.N,GND*
G04 #@! TO.C,D3~~1*
G36*
X175047839Y-67587720D02*
X175609331Y-68291088D01*
X174671507Y-69039744D01*
X174110015Y-68336376D01*
X175047839Y-67587720D01*
X175047839Y-67587720D01*
G37*
D13*
G04 #@! TO.P,D5~~1,1*
G04 #@! TO.N,GND*
X165982208Y-108488673D03*
D14*
G04 #@! TD*
G04 #@! TO.N,GND*
G04 #@! TO.C,D5~~1*
G36*
X166649688Y-108830682D02*
X165840773Y-109225216D01*
X165314728Y-108146664D01*
X166123643Y-107752130D01*
X166649688Y-108830682D01*
X166649688Y-108830682D01*
G37*
D13*
G04 #@! TO.P,D5~~1,2*
G04 #@! TO.N,Net-(D5~~1-Pad2)*
X165017792Y-106511327D03*
D14*
G04 #@! TD*
G04 #@! TO.N,Net-(D5~~1-Pad2)*
G04 #@! TO.C,D5~~1*
G36*
X165685272Y-106853336D02*
X164876357Y-107247870D01*
X164350312Y-106169318D01*
X165159227Y-105774784D01*
X165685272Y-106853336D01*
X165685272Y-106853336D01*
G37*
D13*
G04 #@! TO.P,D6~~1,2*
G04 #@! TO.N,Net-(D6~~1-Pad2)*
X144977025Y-106508815D03*
D14*
G04 #@! TD*
G04 #@! TO.N,Net-(D6~~1-Pad2)*
G04 #@! TO.C,D6~~1*
G36*
X145122314Y-107244608D02*
X144311345Y-106854315D01*
X144831736Y-105773022D01*
X145642705Y-106163315D01*
X145122314Y-107244608D01*
X145122314Y-107244608D01*
G37*
D13*
G04 #@! TO.P,D6~~1,1*
G04 #@! TO.N,GND*
X144022975Y-108491185D03*
D14*
G04 #@! TD*
G04 #@! TO.N,GND*
G04 #@! TO.C,D6~~1*
G36*
X144168264Y-109226978D02*
X143357295Y-108836685D01*
X143877686Y-107755392D01*
X144688655Y-108145685D01*
X144168264Y-109226978D01*
X144168264Y-109226978D01*
G37*
D13*
G04 #@! TO.P,D9~~1,1*
G04 #@! TO.N,GND*
X149702628Y-82050000D03*
D14*
G04 #@! TD*
G04 #@! TO.N,GND*
G04 #@! TO.C,D9~~1*
G36*
X150447243Y-81960289D02*
X149997243Y-82739711D01*
X148958013Y-82139711D01*
X149408013Y-81360289D01*
X150447243Y-81960289D01*
X150447243Y-81960289D01*
G37*
D13*
G04 #@! TO.P,D9~~1,2*
G04 #@! TO.N,Net-(D9~~1-Pad2)*
X147797372Y-80950000D03*
D14*
G04 #@! TD*
G04 #@! TO.N,Net-(D9~~1-Pad2)*
G04 #@! TO.C,D9~~1*
G36*
X148541987Y-80860289D02*
X148091987Y-81639711D01*
X147052757Y-81039711D01*
X147502757Y-80260289D01*
X148541987Y-80860289D01*
X148541987Y-80860289D01*
G37*
D11*
G04 #@! TO.P,J1,1*
G04 #@! TO.N,GND*
X131445000Y-109220000D03*
D10*
G04 #@! TO.P,J1,2*
G04 #@! TO.N,TX*
X131445000Y-106680000D03*
G04 #@! TO.P,J1,3*
G04 #@! TO.N,RX*
X131445000Y-104140000D03*
G04 #@! TO.P,J1,4*
G04 #@! TO.N,~RESET*
X131445000Y-101600000D03*
G04 #@! TO.P,J1,5*
G04 #@! TO.N,+BATT*
X131445000Y-99060000D03*
G04 #@! TD*
D12*
G04 #@! TO.P,R2,2*
G04 #@! TO.N,Net-(D2-Pad2)*
X155000000Y-64400000D03*
G04 #@! TO.P,R2,1*
G04 #@! TO.N,Net-(R2-Pad1)*
X155000000Y-66600000D03*
G04 #@! TD*
D13*
G04 #@! TO.P,R3,1*
G04 #@! TO.N,Net-(R3-Pad1)*
X169640327Y-72436268D03*
D14*
G04 #@! TD*
G04 #@! TO.N,Net-(R3-Pad1)*
G04 #@! TO.C,R3*
G36*
X169452161Y-73162280D02*
X168890669Y-72458912D01*
X169828493Y-71710256D01*
X170389985Y-72413624D01*
X169452161Y-73162280D01*
X169452161Y-73162280D01*
G37*
D13*
G04 #@! TO.P,R3,2*
G04 #@! TO.N,Net-(D3~~1-Pad2)*
X171359673Y-71063732D03*
D14*
G04 #@! TD*
G04 #@! TO.N,Net-(D3~~1-Pad2)*
G04 #@! TO.C,R3*
G36*
X171171507Y-71789744D02*
X170610015Y-71086376D01*
X171547839Y-70337720D01*
X172109331Y-71041088D01*
X171171507Y-71789744D01*
X171171507Y-71789744D01*
G37*
D13*
G04 #@! TO.P,R4,2*
G04 #@! TO.N,Net-(D4-Pad2)*
X176072664Y-89743703D03*
D14*
G04 #@! TD*
G04 #@! TO.N,Net-(D4-Pad2)*
G04 #@! TO.C,R4*
G36*
X175387878Y-90049591D02*
X175587271Y-89171957D01*
X176757450Y-89437815D01*
X176558057Y-90315449D01*
X175387878Y-90049591D01*
X175387878Y-90049591D01*
G37*
D13*
G04 #@! TO.P,R4,1*
G04 #@! TO.N,Net-(R4-Pad1)*
X173927336Y-89256297D03*
D14*
G04 #@! TD*
G04 #@! TO.N,Net-(R4-Pad1)*
G04 #@! TO.C,R4*
G36*
X173242550Y-89562185D02*
X173441943Y-88684551D01*
X174612122Y-88950409D01*
X174412729Y-89828043D01*
X173242550Y-89562185D01*
X173242550Y-89562185D01*
G37*
D13*
G04 #@! TO.P,R5,1*
G04 #@! TO.N,Net-(R5-Pad1)*
X163017792Y-102511327D03*
D14*
G04 #@! TD*
G04 #@! TO.N,Net-(R5-Pad1)*
G04 #@! TO.C,R5*
G36*
X162350312Y-102169318D02*
X163159227Y-101774784D01*
X163685272Y-102853336D01*
X162876357Y-103247870D01*
X162350312Y-102169318D01*
X162350312Y-102169318D01*
G37*
D13*
G04 #@! TO.P,R5,2*
G04 #@! TO.N,Net-(D5~~1-Pad2)*
X163982208Y-104488673D03*
D14*
G04 #@! TD*
G04 #@! TO.N,Net-(D5~~1-Pad2)*
G04 #@! TO.C,R5*
G36*
X163314728Y-104146664D02*
X164123643Y-103752130D01*
X164649688Y-104830682D01*
X163840773Y-105225216D01*
X163314728Y-104146664D01*
X163314728Y-104146664D01*
G37*
D13*
G04 #@! TO.P,R6,2*
G04 #@! TO.N,Net-(D6~~1-Pad2)*
X146022975Y-104491185D03*
D14*
G04 #@! TD*
G04 #@! TO.N,Net-(D6~~1-Pad2)*
G04 #@! TO.C,R6*
G36*
X145877686Y-103755392D02*
X146688655Y-104145685D01*
X146168264Y-105226978D01*
X145357295Y-104836685D01*
X145877686Y-103755392D01*
X145877686Y-103755392D01*
G37*
D13*
G04 #@! TO.P,R6,1*
G04 #@! TO.N,Net-(R6-Pad1)*
X146977025Y-102508815D03*
D14*
G04 #@! TD*
G04 #@! TO.N,Net-(R6-Pad1)*
G04 #@! TO.C,R6*
G36*
X146831736Y-101773022D02*
X147642705Y-102163315D01*
X147122314Y-103244608D01*
X146311345Y-102854315D01*
X146831736Y-101773022D01*
X146831736Y-101773022D01*
G37*
D13*
G04 #@! TO.P,R7,2*
G04 #@! TO.N,Net-(D7-Pad2)*
X133928193Y-89247446D03*
D14*
G04 #@! TD*
G04 #@! TO.N,Net-(D7-Pad2)*
G04 #@! TO.C,R7*
G36*
X134411587Y-88674009D02*
X134614043Y-89550942D01*
X133444799Y-89820883D01*
X133242343Y-88943950D01*
X134411587Y-88674009D01*
X134411587Y-88674009D01*
G37*
D13*
G04 #@! TO.P,R7,1*
G04 #@! TO.N,Net-(R7-Pad1)*
X136071807Y-88752554D03*
D14*
G04 #@! TD*
G04 #@! TO.N,Net-(R7-Pad1)*
G04 #@! TO.C,R7*
G36*
X136555201Y-88179117D02*
X136757657Y-89056050D01*
X135588413Y-89325991D01*
X135385957Y-88449058D01*
X136555201Y-88179117D01*
X136555201Y-88179117D01*
G37*
D13*
G04 #@! TO.P,R8,1*
G04 #@! TO.N,Net-(R8-Pad1)*
X139859673Y-72936268D03*
D14*
G04 #@! TD*
G04 #@! TO.N,Net-(R8-Pad1)*
G04 #@! TO.C,R8*
G36*
X140609331Y-72958912D02*
X140047839Y-73662280D01*
X139110015Y-72913624D01*
X139671507Y-72210256D01*
X140609331Y-72958912D01*
X140609331Y-72958912D01*
G37*
D13*
G04 #@! TO.P,R8,2*
G04 #@! TO.N,Net-(D8-Pad2)*
X138140327Y-71563732D03*
D14*
G04 #@! TD*
G04 #@! TO.N,Net-(D8-Pad2)*
G04 #@! TO.C,R8*
G36*
X138889985Y-71586376D02*
X138328493Y-72289744D01*
X137390669Y-71541088D01*
X137952161Y-70837720D01*
X138889985Y-71586376D01*
X138889985Y-71586376D01*
G37*
D13*
G04 #@! TO.P,R9,1*
G04 #@! TO.N,Net-(R9-Pad1)*
X143797372Y-78650000D03*
D14*
G04 #@! TD*
G04 #@! TO.N,Net-(R9-Pad1)*
G04 #@! TO.C,R9*
G36*
X143052757Y-78739711D02*
X143502757Y-77960289D01*
X144541987Y-78560289D01*
X144091987Y-79339711D01*
X143052757Y-78739711D01*
X143052757Y-78739711D01*
G37*
D13*
G04 #@! TO.P,R9,2*
G04 #@! TO.N,Net-(D9~~1-Pad2)*
X145702628Y-79750000D03*
D14*
G04 #@! TD*
G04 #@! TO.N,Net-(D9~~1-Pad2)*
G04 #@! TO.C,R9*
G36*
X144958013Y-79839711D02*
X145408013Y-79060289D01*
X146447243Y-79660289D01*
X145997243Y-80439711D01*
X144958013Y-79839711D01*
X144958013Y-79839711D01*
G37*
D12*
G04 #@! TO.P,R10,2*
G04 #@! TO.N,Net-(D10~~1-Pad2)*
X155000000Y-95750000D03*
G04 #@! TO.P,R10,1*
G04 #@! TO.N,Net-(R10-Pad1)*
X155000000Y-97950000D03*
G04 #@! TD*
D13*
G04 #@! TO.P,R11,2*
G04 #@! TO.N,Net-(D11~~1-Pad2)*
X164500000Y-79500000D03*
D14*
G04 #@! TD*
G04 #@! TO.N,Net-(D11~~1-Pad2)*
G04 #@! TO.C,R11*
G36*
X164794615Y-78810289D02*
X165244615Y-79589711D01*
X164205385Y-80189711D01*
X163755385Y-79410289D01*
X164794615Y-78810289D01*
X164794615Y-78810289D01*
G37*
D13*
G04 #@! TO.P,R11,1*
G04 #@! TO.N,MOSI*
X166405256Y-78400000D03*
D14*
G04 #@! TD*
G04 #@! TO.N,MOSI*
G04 #@! TO.C,R11*
G36*
X166699871Y-77710289D02*
X167149871Y-78489711D01*
X166110641Y-79089711D01*
X165660641Y-78310289D01*
X166699871Y-77710289D01*
X166699871Y-77710289D01*
G37*
D15*
G04 #@! TO.P,R12,1*
G04 #@! TO.N,MISO*
X156800000Y-72000000D03*
G04 #@! TO.P,R12,2*
G04 #@! TO.N,Net-(D12-Pad2)*
X159000000Y-72000000D03*
G04 #@! TD*
G04 #@! TO.P,R13,1*
G04 #@! TO.N,SCK*
X143800000Y-97250000D03*
G04 #@! TO.P,R13,2*
G04 #@! TO.N,Net-(D13-Pad2)*
X146000000Y-97250000D03*
G04 #@! TD*
D16*
G04 #@! TO.P,U2,4*
G04 #@! TO.N,Net-(R16-Pad2)*
X154500000Y-84620000D03*
G04 #@! TO.P,U2,3*
G04 #@! TO.N,GND*
X154500000Y-85380000D03*
G04 #@! TO.P,U2,2*
X155500000Y-84620000D03*
G04 #@! TO.P,U2,1*
G04 #@! TO.N,Net-(R14-Pad2)*
X155500000Y-85380000D03*
G04 #@! TD*
D17*
G04 #@! TO.N,GND*
X168910000Y-107315000D03*
X169545000Y-85090000D03*
X169545000Y-86360000D03*
X156972000Y-85725000D03*
X156972000Y-92329000D03*
G04 #@! TO.N,MISO*
X160401000Y-94361000D03*
G04 #@! TO.N,SCK*
X158493992Y-101184345D03*
G04 #@! TO.N,MOSI*
X161163000Y-92837000D03*
G04 #@! TO.N,~RESET*
X172720000Y-76200000D03*
X172720000Y-79375000D03*
G04 #@! TO.N,Net-(R2-Pad1)*
X168211500Y-81851500D03*
G04 #@! TO.N,Net-(R3-Pad1)*
X169500000Y-83000000D03*
G04 #@! TO.N,Net-(R4-Pad1)*
X172212000Y-84201000D03*
G04 #@! TO.N,Net-(R5-Pad1)*
X166000000Y-97500000D03*
G04 #@! TO.N,Net-(R6-Pad1)*
X164751021Y-95885000D03*
G04 #@! TO.N,Net-(R7-Pad1)*
X164301010Y-93472000D03*
G04 #@! TO.N,Net-(R8-Pad1)*
X163576000Y-92583000D03*
G04 #@! TO.N,Net-(R9-Pad1)*
X162814000Y-93345000D03*
G04 #@! TO.N,Net-(R10-Pad1)*
X161036000Y-96393000D03*
G04 #@! TO.N,Net-(R16-Pad2)*
X154669836Y-83705154D03*
G04 #@! TO.N,Net-(R14-Pad2)*
X155500000Y-87000000D03*
G04 #@! TD*
D18*
G04 #@! TO.N,MISO*
X156650000Y-72000000D02*
X156800000Y-72000000D01*
X156641000Y-72009000D02*
X156650000Y-72000000D01*
X153035000Y-72009000D02*
X156641000Y-72009000D01*
X151448205Y-73595795D02*
X153035000Y-72009000D01*
X151448205Y-96836795D02*
X151448205Y-73595795D01*
X154052410Y-99441000D02*
X151448205Y-96836795D01*
X161544000Y-94361000D02*
X162052000Y-94869000D01*
X160401000Y-94361000D02*
X161544000Y-94361000D01*
X162052000Y-94869000D02*
X162052000Y-96901000D01*
X156464000Y-99441000D02*
X154052410Y-99441000D01*
X162052000Y-96901000D02*
X160528000Y-98425000D01*
X160528000Y-98425000D02*
X157480000Y-98425000D01*
X157480000Y-98425000D02*
X156464000Y-99441000D01*
G04 #@! TO.N,SCK*
X158078337Y-101600000D02*
X158493992Y-101184345D01*
X143800000Y-98425000D02*
X143855000Y-98425000D01*
X143800000Y-97250000D02*
X143800000Y-98425000D01*
X143855000Y-98425000D02*
X144145000Y-98715000D01*
X144145000Y-98715000D02*
X150150000Y-98715000D01*
X150150000Y-98715000D02*
X153035000Y-101600000D01*
X153035000Y-101600000D02*
X158078337Y-101600000D01*
G04 #@! TO.N,MOSI*
X162179000Y-91821000D02*
X161163000Y-92837000D01*
X165608000Y-91821000D02*
X162179000Y-91821000D01*
X166405256Y-78400000D02*
X166405256Y-91023744D01*
X166405256Y-91023744D02*
X165608000Y-91821000D01*
G04 #@! TO.N,~RESET*
X172720000Y-79375000D02*
X172720000Y-76200000D01*
G04 #@! TO.N,Net-(D2-Pad2)*
X155000000Y-61850000D02*
X155000000Y-64400000D01*
X155000000Y-61000000D02*
X155000000Y-61850000D01*
G04 #@! TO.N,Net-(D4-Pad2)*
X178427336Y-90256297D02*
X176100000Y-89700000D01*
G04 #@! TO.N,Net-(D7-Pad2)*
X131571807Y-89752554D02*
X133900000Y-89200000D01*
G04 #@! TO.N,Net-(D8-Pad2)*
X136359673Y-70186268D02*
X138100000Y-71700000D01*
G04 #@! TO.N,Net-(D12-Pad2)*
X159000000Y-74850000D02*
X158850000Y-75000000D01*
X159000000Y-72000000D02*
X159000000Y-74850000D01*
G04 #@! TO.N,Net-(D13-Pad2)*
X146000000Y-94700000D02*
X146000000Y-97250000D01*
X146000000Y-94000000D02*
X146000000Y-94700000D01*
G04 #@! TO.N,Net-(D10~~1-Pad2)*
X155000000Y-93200000D02*
X155000000Y-95750000D01*
G04 #@! TO.N,Net-(D11~~1-Pad2)*
X162155256Y-80900000D02*
X164600000Y-79500000D01*
G04 #@! TO.N,Net-(D3~~1-Pad2)*
X173140327Y-69686268D02*
X171400000Y-71100000D01*
G04 #@! TO.N,Net-(D5~~1-Pad2)*
X165017792Y-106511327D02*
X164000000Y-104400000D01*
G04 #@! TO.N,Net-(D6~~1-Pad2)*
X144977025Y-106508815D02*
X146000000Y-104500000D01*
G04 #@! TO.N,Net-(D9~~1-Pad2)*
X145702628Y-79750000D02*
X147800000Y-81000000D01*
G04 #@! TO.N,Net-(R2-Pad1)*
X168211500Y-81851500D02*
X168275000Y-80169325D01*
X168275000Y-80169325D02*
X168275000Y-74295000D01*
X168275000Y-74295000D02*
X160580000Y-66600000D01*
X160580000Y-66600000D02*
X155000000Y-66600000D01*
G04 #@! TO.N,Net-(R3-Pad1)*
X169640327Y-72436268D02*
X169640327Y-82859673D01*
X169640327Y-82859673D02*
X169500000Y-83000000D01*
G04 #@! TO.N,Net-(R4-Pad1)*
X173927336Y-89256297D02*
X173203297Y-89256297D01*
X173203297Y-89256297D02*
X172720000Y-88773000D01*
X172720000Y-88773000D02*
X172720000Y-84709000D01*
X172720000Y-84709000D02*
X172212000Y-84201000D01*
G04 #@! TO.N,Net-(R5-Pad1)*
X166000000Y-97500000D02*
X166000000Y-98160000D01*
X163017792Y-101142208D02*
X163017792Y-102511327D01*
X166000000Y-98160000D02*
X163017792Y-101142208D01*
G04 #@! TO.N,Net-(R6-Pad1)*
X164751021Y-98138979D02*
X164751021Y-95885000D01*
X160381185Y-102508815D02*
X164751021Y-98138979D01*
X146977025Y-102508815D02*
X160381185Y-102508815D01*
G04 #@! TO.N,Net-(R7-Pad1)*
X161417000Y-100330000D02*
X164026011Y-97720989D01*
X158115000Y-100330000D02*
X161417000Y-100330000D01*
X164026011Y-97720989D02*
X164026011Y-94312684D01*
X148442554Y-88752554D02*
X150027176Y-90337176D01*
X136071807Y-88752554D02*
X148442554Y-88752554D01*
X150027176Y-90337176D02*
X150027176Y-97576176D01*
X150027176Y-97576176D02*
X153416000Y-100965000D01*
X164301010Y-94037685D02*
X164301010Y-93472000D01*
X164026011Y-94312684D02*
X164301010Y-94037685D01*
X153416000Y-100965000D02*
X157480000Y-100965000D01*
X157480000Y-100965000D02*
X158115000Y-100330000D01*
G04 #@! TO.N,Net-(R8-Pad1)*
X150495000Y-90168589D02*
X139859673Y-79533262D01*
X150495000Y-97156411D02*
X150495000Y-90168589D01*
X163576000Y-92583000D02*
X163576000Y-97028000D01*
X160909000Y-99695000D02*
X157988000Y-99695000D01*
X157988000Y-99695000D02*
X157226000Y-100457000D01*
X163576000Y-97028000D02*
X160909000Y-99695000D01*
X157226000Y-100457000D02*
X153795589Y-100457000D01*
X139859673Y-79533262D02*
X139859673Y-72936268D01*
X153795589Y-100457000D02*
X150495000Y-97156411D01*
G04 #@! TO.N,Net-(R9-Pad1)*
X160655000Y-99060000D02*
X162814000Y-96901000D01*
X157861000Y-99060000D02*
X160655000Y-99060000D01*
X143797372Y-78650000D02*
X143797372Y-82641361D01*
X143797372Y-82641361D02*
X150945011Y-89789000D01*
X150945011Y-89789000D02*
X150945011Y-96970011D01*
X150945011Y-96970011D02*
X153924000Y-99949000D01*
X153924000Y-99949000D02*
X156972000Y-99949000D01*
X162814000Y-96901000D02*
X162814000Y-93345000D01*
X156972000Y-99949000D02*
X157861000Y-99060000D01*
G04 #@! TO.N,Net-(R10-Pad1)*
X161036000Y-96901000D02*
X161036000Y-96393000D01*
X155000000Y-97950000D02*
X159987000Y-97950000D01*
X159987000Y-97950000D02*
X161036000Y-96901000D01*
G04 #@! TO.N,Net-(R16-Pad2)*
X154500000Y-83874990D02*
X154669836Y-83705154D01*
X154500000Y-84620000D02*
X154500000Y-83874990D01*
G04 #@! TO.N,Net-(R14-Pad2)*
X155500000Y-87000000D02*
X155500000Y-85380000D01*
G04 #@! TD*
D19*
G04 #@! TO.N,GND*
G36*
X157468609Y-45762579D02*
X159927476Y-45995011D01*
X162366896Y-46381377D01*
X164777243Y-46920153D01*
X167149003Y-47609213D01*
X169472817Y-48445837D01*
X171739513Y-49426724D01*
X173940146Y-50548003D01*
X176066030Y-51805248D01*
X178108777Y-53193497D01*
X180060324Y-54707272D01*
X181912969Y-56340598D01*
X183659402Y-58087031D01*
X185292728Y-59939676D01*
X186806503Y-61891223D01*
X188194752Y-63933970D01*
X189451997Y-66059854D01*
X190573276Y-68260487D01*
X191554163Y-70527183D01*
X192390787Y-72850997D01*
X193079847Y-75222757D01*
X193618623Y-77633104D01*
X194004989Y-80072524D01*
X194237421Y-82531391D01*
X194315000Y-85000000D01*
X194237421Y-87468609D01*
X194004989Y-89927476D01*
X193618623Y-92366896D01*
X193079847Y-94777243D01*
X192390787Y-97149003D01*
X191554163Y-99472817D01*
X190573276Y-101739513D01*
X189451997Y-103940146D01*
X188194752Y-106066030D01*
X186806503Y-108108777D01*
X185292728Y-110060324D01*
X183659402Y-111912969D01*
X181912969Y-113659402D01*
X180060324Y-115292728D01*
X178108777Y-116806503D01*
X176066030Y-118194752D01*
X173940146Y-119451997D01*
X171739513Y-120573276D01*
X169472817Y-121554163D01*
X167149003Y-122390787D01*
X164777243Y-123079847D01*
X162366896Y-123618623D01*
X159927476Y-124004989D01*
X157468609Y-124237421D01*
X155000000Y-124315000D01*
X152531391Y-124237421D01*
X150072524Y-124004989D01*
X147633104Y-123618623D01*
X145222757Y-123079847D01*
X142850997Y-122390787D01*
X140527183Y-121554163D01*
X138260487Y-120573276D01*
X136059854Y-119451997D01*
X133933970Y-118194752D01*
X131891223Y-116806503D01*
X129939676Y-115292728D01*
X129938726Y-115291890D01*
X152228524Y-115291890D01*
X152398355Y-115701924D01*
X152788642Y-116130183D01*
X153313108Y-116376486D01*
X153543000Y-116255819D01*
X153543000Y-115062000D01*
X152349845Y-115062000D01*
X152228524Y-115291890D01*
X129938726Y-115291890D01*
X128087031Y-113659402D01*
X126340598Y-111912969D01*
X124707272Y-110060324D01*
X124277101Y-109505750D01*
X129960000Y-109505750D01*
X129960000Y-110196310D01*
X130056673Y-110429699D01*
X130235302Y-110608327D01*
X130468691Y-110705000D01*
X131159250Y-110705000D01*
X131318000Y-110546250D01*
X131318000Y-109347000D01*
X131572000Y-109347000D01*
X131572000Y-110546250D01*
X131730750Y-110705000D01*
X132421309Y-110705000D01*
X132654698Y-110608327D01*
X132833327Y-110429699D01*
X132930000Y-110196310D01*
X132930000Y-109516044D01*
X143670686Y-109516044D01*
X143744889Y-109727933D01*
X143779077Y-109744387D01*
X144006706Y-109853937D01*
X144258930Y-109868039D01*
X144296163Y-109855000D01*
X152155908Y-109855000D01*
X152271161Y-110434418D01*
X152599375Y-110925625D01*
X152897761Y-111125000D01*
X152599375Y-111324375D01*
X152271161Y-111815582D01*
X152155908Y-112395000D01*
X152271161Y-112974418D01*
X152599375Y-113465625D01*
X152918478Y-113678843D01*
X152788642Y-113739817D01*
X152398355Y-114168076D01*
X152228524Y-114578110D01*
X152349845Y-114808000D01*
X153543000Y-114808000D01*
X153543000Y-114788000D01*
X153797000Y-114788000D01*
X153797000Y-114808000D01*
X153817000Y-114808000D01*
X153817000Y-115062000D01*
X153797000Y-115062000D01*
X153797000Y-116255819D01*
X154026892Y-116376486D01*
X154551358Y-116130183D01*
X154938647Y-115705214D01*
X155139375Y-116005625D01*
X155630582Y-116333839D01*
X156063744Y-116420000D01*
X156356256Y-116420000D01*
X156789418Y-116333839D01*
X157280625Y-116005625D01*
X157608839Y-115514418D01*
X157724092Y-114935000D01*
X157608839Y-114355582D01*
X157280625Y-113864375D01*
X156982239Y-113665000D01*
X157280625Y-113465625D01*
X157608839Y-112974418D01*
X157724092Y-112395000D01*
X157608839Y-111815582D01*
X157280625Y-111324375D01*
X157262381Y-111312184D01*
X157307765Y-111303157D01*
X157517809Y-111162809D01*
X157658157Y-110952765D01*
X157707440Y-110705000D01*
X157707440Y-109221136D01*
X165132281Y-109221136D01*
X165325409Y-109617108D01*
X165514609Y-109784498D01*
X165753465Y-109866743D01*
X166005612Y-109851321D01*
X166232665Y-109740580D01*
X166266766Y-109723948D01*
X166339858Y-109511673D01*
X165923734Y-108658493D01*
X165205373Y-109008861D01*
X165132281Y-109221136D01*
X157707440Y-109221136D01*
X157707440Y-109005000D01*
X157658157Y-108757235D01*
X157517809Y-108547191D01*
X157307765Y-108406843D01*
X157060000Y-108357560D01*
X155360000Y-108357560D01*
X155112235Y-108406843D01*
X154902191Y-108547191D01*
X154761843Y-108757235D01*
X154752816Y-108802619D01*
X154740625Y-108784375D01*
X154249418Y-108456161D01*
X153816256Y-108370000D01*
X153523744Y-108370000D01*
X153090582Y-108456161D01*
X152599375Y-108784375D01*
X152271161Y-109275582D01*
X152155908Y-109855000D01*
X144296163Y-109855000D01*
X144497352Y-109784544D01*
X144685673Y-109616165D01*
X144876725Y-109219188D01*
X144802523Y-109007299D01*
X144082337Y-108660696D01*
X143670686Y-109516044D01*
X132930000Y-109516044D01*
X132930000Y-109505750D01*
X132771250Y-109347000D01*
X131572000Y-109347000D01*
X131318000Y-109347000D01*
X130118750Y-109347000D01*
X129960000Y-109505750D01*
X124277101Y-109505750D01*
X123193497Y-108108777D01*
X121805248Y-106066030D01*
X120548003Y-103940146D01*
X119426724Y-101739513D01*
X118445837Y-99472817D01*
X118297214Y-99060000D01*
X129930908Y-99060000D01*
X130046161Y-99639418D01*
X130374375Y-100130625D01*
X130672761Y-100330000D01*
X130374375Y-100529375D01*
X130046161Y-101020582D01*
X129930908Y-101600000D01*
X130046161Y-102179418D01*
X130374375Y-102670625D01*
X130672761Y-102870000D01*
X130374375Y-103069375D01*
X130046161Y-103560582D01*
X129930908Y-104140000D01*
X130046161Y-104719418D01*
X130374375Y-105210625D01*
X130672761Y-105410000D01*
X130374375Y-105609375D01*
X130046161Y-106100582D01*
X129930908Y-106680000D01*
X130046161Y-107259418D01*
X130374375Y-107750625D01*
X130396033Y-107765096D01*
X130235302Y-107831673D01*
X130056673Y-108010301D01*
X129960000Y-108243690D01*
X129960000Y-108934250D01*
X130118750Y-109093000D01*
X131318000Y-109093000D01*
X131318000Y-109073000D01*
X131572000Y-109073000D01*
X131572000Y-109093000D01*
X132771250Y-109093000D01*
X132930000Y-108934250D01*
X132930000Y-108927350D01*
X142716234Y-108927350D01*
X142799728Y-109165772D01*
X142968106Y-109354093D01*
X143195736Y-109463644D01*
X143229923Y-109480097D01*
X143441813Y-109405894D01*
X143853464Y-108550547D01*
X143133278Y-108203945D01*
X142921388Y-108278148D01*
X142730336Y-108675125D01*
X142716234Y-108927350D01*
X132930000Y-108927350D01*
X132930000Y-108243690D01*
X132833327Y-108010301D01*
X132654698Y-107831673D01*
X132493967Y-107765096D01*
X132515625Y-107750625D01*
X132843839Y-107259418D01*
X132959092Y-106680000D01*
X132843839Y-106100582D01*
X132515625Y-105609375D01*
X132217239Y-105410000D01*
X132515625Y-105210625D01*
X132843839Y-104719418D01*
X132959092Y-104140000D01*
X132843839Y-103560582D01*
X132515625Y-103069375D01*
X132217239Y-102870000D01*
X132515625Y-102670625D01*
X132843839Y-102179418D01*
X132959092Y-101600000D01*
X132843839Y-101020582D01*
X132515625Y-100529375D01*
X132217239Y-100330000D01*
X132515625Y-100130625D01*
X132843839Y-99639418D01*
X132959092Y-99060000D01*
X132843839Y-98480582D01*
X132515625Y-97989375D01*
X132024418Y-97661161D01*
X131591256Y-97575000D01*
X131298744Y-97575000D01*
X130865582Y-97661161D01*
X130374375Y-97989375D01*
X130046161Y-98480582D01*
X129930908Y-99060000D01*
X118297214Y-99060000D01*
X117609213Y-97149003D01*
X116920153Y-94777243D01*
X116810292Y-94285750D01*
X142565000Y-94285750D01*
X142565000Y-94576310D01*
X142661673Y-94809699D01*
X142840302Y-94988327D01*
X143073691Y-95085000D01*
X143514250Y-95085000D01*
X143673000Y-94926250D01*
X143673000Y-94127000D01*
X142723750Y-94127000D01*
X142565000Y-94285750D01*
X116810292Y-94285750D01*
X116617599Y-93423690D01*
X142565000Y-93423690D01*
X142565000Y-93714250D01*
X142723750Y-93873000D01*
X143673000Y-93873000D01*
X143673000Y-93073750D01*
X143514250Y-92915000D01*
X143073691Y-92915000D01*
X142840302Y-93011673D01*
X142661673Y-93190301D01*
X142565000Y-93423690D01*
X116617599Y-93423690D01*
X116381377Y-92366896D01*
X116133790Y-90803687D01*
X128289126Y-90803687D01*
X128297661Y-90840655D01*
X128354488Y-91086800D01*
X128501184Y-91292460D01*
X128715417Y-91426327D01*
X128964571Y-91468021D01*
X129393839Y-91368917D01*
X129512809Y-91178525D01*
X129333017Y-90399760D01*
X128408096Y-90613295D01*
X128289126Y-90803687D01*
X116133790Y-90803687D01*
X116000752Y-89963721D01*
X128095204Y-89963721D01*
X128152031Y-90209866D01*
X128160566Y-90246834D01*
X128350958Y-90365805D01*
X129275879Y-90152270D01*
X129096087Y-89373505D01*
X129004648Y-89316367D01*
X129343577Y-89316367D01*
X129523369Y-90095132D01*
X129542856Y-90090633D01*
X129599995Y-90338123D01*
X129580507Y-90342622D01*
X129760299Y-91121387D01*
X129950691Y-91240358D01*
X130379959Y-91141254D01*
X130585619Y-90994557D01*
X130691773Y-90824677D01*
X130745322Y-90875051D01*
X130981554Y-90964552D01*
X131234055Y-90956837D01*
X132403299Y-90686896D01*
X132633627Y-90583141D01*
X132806717Y-90399141D01*
X132872725Y-90224915D01*
X132932467Y-90210737D01*
X133101708Y-90369943D01*
X133337940Y-90459444D01*
X133590441Y-90451729D01*
X134759685Y-90181788D01*
X134990013Y-90078033D01*
X135163103Y-89894033D01*
X135190009Y-89823017D01*
X135245322Y-89875051D01*
X135481554Y-89964552D01*
X135734055Y-89956837D01*
X136903299Y-89686896D01*
X137133627Y-89583141D01*
X137200029Y-89512554D01*
X148127753Y-89512554D01*
X149267176Y-90651978D01*
X149267177Y-97501324D01*
X149252288Y-97576176D01*
X149267177Y-97651028D01*
X149297384Y-97802889D01*
X149311273Y-97872713D01*
X149366255Y-97955000D01*
X147193323Y-97955000D01*
X147198157Y-97947765D01*
X147247440Y-97700000D01*
X147247440Y-96800000D01*
X147198157Y-96552235D01*
X147057809Y-96342191D01*
X146847765Y-96201843D01*
X146760000Y-96184386D01*
X146760000Y-95065614D01*
X146847765Y-95048157D01*
X147057809Y-94907809D01*
X147198157Y-94697765D01*
X147247440Y-94450000D01*
X147247440Y-93550000D01*
X147198157Y-93302235D01*
X147057809Y-93092191D01*
X146847765Y-92951843D01*
X146600000Y-92902560D01*
X145400000Y-92902560D01*
X145152235Y-92951843D01*
X144942191Y-93092191D01*
X144901346Y-93153320D01*
X144759698Y-93011673D01*
X144526309Y-92915000D01*
X144085750Y-92915000D01*
X143927000Y-93073750D01*
X143927000Y-93873000D01*
X143947000Y-93873000D01*
X143947000Y-94127000D01*
X143927000Y-94127000D01*
X143927000Y-94926250D01*
X144085750Y-95085000D01*
X144526309Y-95085000D01*
X144759698Y-94988327D01*
X144901346Y-94846680D01*
X144942191Y-94907809D01*
X145152235Y-95048157D01*
X145240000Y-95065614D01*
X145240001Y-96184386D01*
X145152235Y-96201843D01*
X144942191Y-96342191D01*
X144900000Y-96405334D01*
X144857809Y-96342191D01*
X144647765Y-96201843D01*
X144400000Y-96152560D01*
X143200000Y-96152560D01*
X142952235Y-96201843D01*
X142742191Y-96342191D01*
X142601843Y-96552235D01*
X142552560Y-96800000D01*
X142552560Y-97700000D01*
X142601843Y-97947765D01*
X142742191Y-98157809D01*
X142952235Y-98298157D01*
X143040001Y-98315615D01*
X143040001Y-98350144D01*
X143025111Y-98425000D01*
X143084096Y-98721537D01*
X143252071Y-98972929D01*
X143481282Y-99126083D01*
X143554669Y-99199470D01*
X143597071Y-99262929D01*
X143848463Y-99430904D01*
X144070148Y-99475000D01*
X144070153Y-99475000D01*
X144145000Y-99489888D01*
X144219847Y-99475000D01*
X149835199Y-99475000D01*
X152109013Y-101748815D01*
X148135413Y-101748815D01*
X148125356Y-101731775D01*
X147923473Y-101579922D01*
X147112504Y-101189629D01*
X146867877Y-101126592D01*
X146617748Y-101161968D01*
X146400196Y-101290371D01*
X146248343Y-101492254D01*
X145727952Y-102573547D01*
X145664915Y-102818174D01*
X145700291Y-103068303D01*
X145738891Y-103133703D01*
X145663698Y-103144338D01*
X145446146Y-103272741D01*
X145294293Y-103474624D01*
X144773902Y-104555917D01*
X144710865Y-104800544D01*
X144746241Y-105050673D01*
X144796969Y-105136621D01*
X144617748Y-105161968D01*
X144400196Y-105290371D01*
X144248343Y-105492254D01*
X143727952Y-106573547D01*
X143664915Y-106818174D01*
X143700291Y-107068303D01*
X143737660Y-107131617D01*
X143548598Y-107197826D01*
X143360277Y-107366205D01*
X143169225Y-107763182D01*
X143243427Y-107975071D01*
X143963613Y-108321674D01*
X143972286Y-108303652D01*
X144201159Y-108413801D01*
X144192486Y-108431823D01*
X144912672Y-108778425D01*
X145124562Y-108704222D01*
X145315614Y-108307245D01*
X145329716Y-108055020D01*
X145263507Y-107865957D01*
X145336302Y-107855662D01*
X145553854Y-107727259D01*
X145705707Y-107525376D01*
X146226098Y-106444083D01*
X146289135Y-106199456D01*
X146253759Y-105949327D01*
X146203031Y-105863379D01*
X146382252Y-105838032D01*
X146599804Y-105709629D01*
X146751657Y-105507746D01*
X147272048Y-104426453D01*
X147335085Y-104181826D01*
X147299709Y-103931697D01*
X147261109Y-103866297D01*
X147336302Y-103855662D01*
X147553854Y-103727259D01*
X147705707Y-103525376D01*
X147829181Y-103268815D01*
X160306338Y-103268815D01*
X160381185Y-103283703D01*
X160456032Y-103268815D01*
X160456037Y-103268815D01*
X160677722Y-103224719D01*
X160929114Y-103056744D01*
X160971516Y-102993285D01*
X161714892Y-102249910D01*
X161768397Y-102453137D01*
X162294442Y-103531689D01*
X162447350Y-103732774D01*
X162665571Y-103860037D01*
X162740818Y-103870277D01*
X162702561Y-103935878D01*
X162668496Y-104186189D01*
X162732813Y-104430483D01*
X163258858Y-105509035D01*
X163411766Y-105710120D01*
X163629987Y-105837383D01*
X163795649Y-105859928D01*
X163738145Y-105958532D01*
X163704080Y-106208843D01*
X163768397Y-106453137D01*
X164294442Y-107531689D01*
X164447350Y-107732774D01*
X164665571Y-107860037D01*
X164738419Y-107869951D01*
X164673202Y-108059356D01*
X164688624Y-108311503D01*
X164881752Y-108707475D01*
X165094027Y-108780567D01*
X165572609Y-108547147D01*
X166152028Y-108547147D01*
X166568152Y-109400327D01*
X166780427Y-109473419D01*
X166814528Y-109456787D01*
X167041580Y-109346046D01*
X167208970Y-109156846D01*
X167291214Y-108917990D01*
X167275792Y-108665843D01*
X167082664Y-108269871D01*
X166870389Y-108196779D01*
X166152028Y-108547147D01*
X165572609Y-108547147D01*
X165812388Y-108430199D01*
X165803621Y-108412223D01*
X166031914Y-108300877D01*
X166040682Y-108318853D01*
X166759043Y-107968485D01*
X166832135Y-107756210D01*
X166639007Y-107360238D01*
X166449807Y-107192848D01*
X166260402Y-107127630D01*
X166297439Y-107064122D01*
X166331504Y-106813811D01*
X166267187Y-106569517D01*
X165741142Y-105490965D01*
X165588234Y-105289880D01*
X165370013Y-105162617D01*
X165204351Y-105140072D01*
X165261855Y-105041468D01*
X165295920Y-104791157D01*
X165231603Y-104546863D01*
X164705558Y-103468311D01*
X164552650Y-103267226D01*
X164334429Y-103139963D01*
X164259182Y-103129723D01*
X164297439Y-103064122D01*
X164331504Y-102813811D01*
X164267187Y-102569517D01*
X163777792Y-101566109D01*
X163777792Y-101457009D01*
X166484473Y-98750329D01*
X166547929Y-98707929D01*
X166715904Y-98456537D01*
X166760000Y-98234852D01*
X166760000Y-98234847D01*
X166767731Y-98195980D01*
X166877431Y-98086280D01*
X167035000Y-97705874D01*
X167035000Y-97294126D01*
X166877431Y-96913720D01*
X166586280Y-96622569D01*
X166205874Y-96465000D01*
X165794126Y-96465000D01*
X165522024Y-96577708D01*
X165628452Y-96471280D01*
X165786021Y-96090874D01*
X165786021Y-95679126D01*
X165628452Y-95298720D01*
X165337301Y-95007569D01*
X164956895Y-94850000D01*
X164786011Y-94850000D01*
X164786011Y-94627661D01*
X164848939Y-94585614D01*
X165016914Y-94334222D01*
X165045324Y-94191397D01*
X165178441Y-94058280D01*
X165336010Y-93677874D01*
X165336010Y-93266126D01*
X165178441Y-92885720D01*
X164887290Y-92594569D01*
X164854531Y-92581000D01*
X165533153Y-92581000D01*
X165608000Y-92595888D01*
X165682847Y-92581000D01*
X165682852Y-92581000D01*
X165904537Y-92536904D01*
X166155929Y-92368929D01*
X166198331Y-92305470D01*
X166889729Y-91614073D01*
X166953185Y-91571673D01*
X167121160Y-91320281D01*
X167165256Y-91098596D01*
X167165256Y-91098592D01*
X167180144Y-91023745D01*
X167165256Y-90948898D01*
X167165256Y-79228427D01*
X167473591Y-79050410D01*
X167515000Y-79014095D01*
X167515000Y-80155000D01*
X167478544Y-81120745D01*
X167334069Y-81265220D01*
X167176500Y-81645626D01*
X167176500Y-82057374D01*
X167334069Y-82437780D01*
X167625220Y-82728931D01*
X168005626Y-82886500D01*
X168417374Y-82886500D01*
X168465000Y-82866773D01*
X168465000Y-83205874D01*
X168622569Y-83586280D01*
X168913720Y-83877431D01*
X169294126Y-84035000D01*
X169705874Y-84035000D01*
X169802138Y-83995126D01*
X171177000Y-83995126D01*
X171177000Y-84406874D01*
X171334569Y-84787280D01*
X171625720Y-85078431D01*
X171960001Y-85216894D01*
X171960000Y-88698153D01*
X171945112Y-88773000D01*
X171960000Y-88847847D01*
X171960000Y-88847851D01*
X172004096Y-89069536D01*
X172172071Y-89320929D01*
X172235530Y-89363331D01*
X172612966Y-89740767D01*
X172655138Y-89803881D01*
X172694691Y-89907190D01*
X172868422Y-90090585D01*
X173099111Y-90193536D01*
X174269290Y-90459394D01*
X174521816Y-90466227D01*
X174757735Y-90375902D01*
X174812866Y-90323676D01*
X174840019Y-90394596D01*
X175013750Y-90577991D01*
X175244439Y-90680942D01*
X176414618Y-90946800D01*
X176667144Y-90953633D01*
X176903063Y-90863308D01*
X177063174Y-90711634D01*
X177125525Y-90726537D01*
X177194691Y-90907190D01*
X177368422Y-91090585D01*
X177599111Y-91193536D01*
X178769290Y-91459394D01*
X179021816Y-91466227D01*
X179257735Y-91375902D01*
X179311107Y-91325342D01*
X179417853Y-91494850D01*
X179624024Y-91640827D01*
X180053635Y-91738433D01*
X180154249Y-91675072D01*
X180491299Y-91675072D01*
X180610933Y-91865048D01*
X181040544Y-91962653D01*
X181289551Y-91920089D01*
X181503315Y-91785475D01*
X181649293Y-91579304D01*
X181705260Y-91332962D01*
X181713666Y-91295964D01*
X181594032Y-91105989D01*
X180668371Y-90895684D01*
X180491299Y-91675072D01*
X180154249Y-91675072D01*
X180243611Y-91618798D01*
X180420683Y-90839410D01*
X180401180Y-90834979D01*
X180443661Y-90647996D01*
X180724645Y-90647996D01*
X181650305Y-90858301D01*
X181840281Y-90738666D01*
X181848687Y-90701668D01*
X181904654Y-90455327D01*
X181862090Y-90206320D01*
X181727475Y-89992556D01*
X181521304Y-89846579D01*
X181091693Y-89748973D01*
X180901717Y-89868608D01*
X180724645Y-90647996D01*
X180443661Y-90647996D01*
X180457454Y-90587291D01*
X180476957Y-90591722D01*
X180654029Y-89812334D01*
X180534395Y-89622358D01*
X180104784Y-89524753D01*
X179855777Y-89567317D01*
X179686268Y-89674062D01*
X179659981Y-89605404D01*
X179486250Y-89422009D01*
X179255561Y-89319058D01*
X178085382Y-89053200D01*
X177832856Y-89046367D01*
X177596937Y-89136692D01*
X177479173Y-89248251D01*
X177353303Y-89218165D01*
X177305309Y-89092810D01*
X177131578Y-88909415D01*
X176900889Y-88806464D01*
X175730710Y-88540606D01*
X175478184Y-88533773D01*
X175242265Y-88624098D01*
X175187134Y-88676324D01*
X175159981Y-88605404D01*
X174986250Y-88422009D01*
X174755561Y-88319058D01*
X173585382Y-88053200D01*
X173480000Y-88050349D01*
X173480000Y-84783846D01*
X173494888Y-84708999D01*
X173480000Y-84634152D01*
X173480000Y-84634148D01*
X173435904Y-84412463D01*
X173394102Y-84349902D01*
X173310329Y-84224526D01*
X173310327Y-84224524D01*
X173267929Y-84161071D01*
X173247000Y-84147087D01*
X173247000Y-83995126D01*
X173089431Y-83614720D01*
X172798280Y-83323569D01*
X172417874Y-83166000D01*
X172006126Y-83166000D01*
X171625720Y-83323569D01*
X171334569Y-83614720D01*
X171177000Y-83995126D01*
X169802138Y-83995126D01*
X170086280Y-83877431D01*
X170377431Y-83586280D01*
X170535000Y-83205874D01*
X170535000Y-82794126D01*
X170400327Y-82468996D01*
X170400327Y-75994126D01*
X171685000Y-75994126D01*
X171685000Y-76405874D01*
X171842569Y-76786280D01*
X171960001Y-76903712D01*
X171960000Y-78671289D01*
X171842569Y-78788720D01*
X171685000Y-79169126D01*
X171685000Y-79580874D01*
X171842569Y-79961280D01*
X172133720Y-80252431D01*
X172514126Y-80410000D01*
X172925874Y-80410000D01*
X173306280Y-80252431D01*
X173597431Y-79961280D01*
X173755000Y-79580874D01*
X173755000Y-79169126D01*
X173597431Y-78788720D01*
X173480000Y-78671289D01*
X173480000Y-76903711D01*
X173597431Y-76786280D01*
X173755000Y-76405874D01*
X173755000Y-75994126D01*
X173597431Y-75613720D01*
X173306280Y-75322569D01*
X172925874Y-75165000D01*
X172514126Y-75165000D01*
X172133720Y-75322569D01*
X171842569Y-75613720D01*
X171685000Y-75994126D01*
X170400327Y-75994126D01*
X170400327Y-73233805D01*
X170793910Y-72919611D01*
X170956796Y-72726520D01*
X171033390Y-72485793D01*
X171026969Y-72410123D01*
X171099338Y-72433149D01*
X171351052Y-72411791D01*
X171575432Y-72295731D01*
X172513256Y-71547075D01*
X172676142Y-71353984D01*
X172752736Y-71113257D01*
X172744185Y-71012474D01*
X172879992Y-71055685D01*
X173131706Y-71034327D01*
X173356086Y-70918267D01*
X174293910Y-70169611D01*
X174456796Y-69976520D01*
X174533390Y-69735793D01*
X174527174Y-69662537D01*
X174726246Y-69684866D01*
X174968957Y-69614811D01*
X175313263Y-69339955D01*
X175338288Y-69116848D01*
X174839653Y-68492218D01*
X174824022Y-68504696D01*
X174687561Y-68333752D01*
X175038159Y-68333752D01*
X175536795Y-68958383D01*
X175759902Y-68983408D01*
X176104208Y-68708552D01*
X176226294Y-68487394D01*
X176254454Y-68236349D01*
X176184399Y-67993639D01*
X176026795Y-67796212D01*
X176003124Y-67766560D01*
X175780017Y-67741535D01*
X175038159Y-68333752D01*
X174687561Y-68333752D01*
X174665557Y-68306189D01*
X174681187Y-68293712D01*
X174182551Y-67669081D01*
X173959444Y-67644056D01*
X173615138Y-67918912D01*
X173493052Y-68140070D01*
X173470722Y-68339142D01*
X173400662Y-68316851D01*
X173148948Y-68338209D01*
X172924568Y-68454269D01*
X171986744Y-69202925D01*
X171823858Y-69396016D01*
X171747264Y-69636743D01*
X171755815Y-69737526D01*
X171620008Y-69694315D01*
X171368294Y-69715673D01*
X171143914Y-69831733D01*
X170206090Y-70580389D01*
X170043204Y-70773480D01*
X169966610Y-71014207D01*
X169973031Y-71089877D01*
X169900662Y-71066851D01*
X169648948Y-71088209D01*
X169424568Y-71204269D01*
X168486744Y-71952925D01*
X168323858Y-72146016D01*
X168247264Y-72386743D01*
X168268622Y-72638457D01*
X168384682Y-72862837D01*
X168880327Y-73483720D01*
X168880327Y-73832972D01*
X168865329Y-73810526D01*
X168865327Y-73810524D01*
X168822929Y-73747071D01*
X168759476Y-73704673D01*
X162565418Y-67510616D01*
X174381058Y-67510616D01*
X174879693Y-68135246D01*
X175621552Y-67543028D01*
X175646577Y-67319921D01*
X175622907Y-67290270D01*
X175465303Y-67092843D01*
X175244144Y-66970757D01*
X174993100Y-66942598D01*
X174750389Y-67012653D01*
X174406083Y-67287509D01*
X174381058Y-67510616D01*
X162565418Y-67510616D01*
X161170331Y-66115530D01*
X161127929Y-66052071D01*
X160876537Y-65884096D01*
X160654852Y-65840000D01*
X160654847Y-65840000D01*
X160580000Y-65825112D01*
X160505153Y-65840000D01*
X156065614Y-65840000D01*
X156048157Y-65752235D01*
X155907809Y-65542191D01*
X155844666Y-65500000D01*
X155907809Y-65457809D01*
X156048157Y-65247765D01*
X156097440Y-65000000D01*
X156097440Y-63800000D01*
X156048157Y-63552235D01*
X155907809Y-63342191D01*
X155760000Y-63243427D01*
X155760000Y-62156573D01*
X155907809Y-62057809D01*
X156048157Y-61847765D01*
X156097440Y-61600000D01*
X156097440Y-60400000D01*
X156048157Y-60152235D01*
X155907809Y-59942191D01*
X155846680Y-59901346D01*
X155988327Y-59759698D01*
X156085000Y-59526309D01*
X156085000Y-59085750D01*
X155926250Y-58927000D01*
X155127000Y-58927000D01*
X155127000Y-58947000D01*
X154873000Y-58947000D01*
X154873000Y-58927000D01*
X154073750Y-58927000D01*
X153915000Y-59085750D01*
X153915000Y-59526309D01*
X154011673Y-59759698D01*
X154153320Y-59901346D01*
X154092191Y-59942191D01*
X153951843Y-60152235D01*
X153902560Y-60400000D01*
X153902560Y-61600000D01*
X153951843Y-61847765D01*
X154092191Y-62057809D01*
X154240000Y-62156573D01*
X154240001Y-63243427D01*
X154092191Y-63342191D01*
X153951843Y-63552235D01*
X153902560Y-63800000D01*
X153902560Y-65000000D01*
X153951843Y-65247765D01*
X154092191Y-65457809D01*
X154155334Y-65500000D01*
X154092191Y-65542191D01*
X153951843Y-65752235D01*
X153902560Y-66000000D01*
X153902560Y-67200000D01*
X153951843Y-67447765D01*
X154092191Y-67657809D01*
X154302235Y-67798157D01*
X154550000Y-67847440D01*
X155450000Y-67847440D01*
X155697765Y-67798157D01*
X155907809Y-67657809D01*
X156048157Y-67447765D01*
X156065614Y-67360000D01*
X160265199Y-67360000D01*
X167515001Y-74609804D01*
X167515000Y-77827255D01*
X167260570Y-77386569D01*
X167094007Y-77196640D01*
X166867441Y-77084910D01*
X166615363Y-77068388D01*
X166376151Y-77149590D01*
X165336921Y-77749590D01*
X165146992Y-77916153D01*
X165035262Y-78142719D01*
X165030295Y-78218498D01*
X164962185Y-78184910D01*
X164710107Y-78168388D01*
X164470895Y-78249590D01*
X163431665Y-78849590D01*
X163241736Y-79016153D01*
X163130006Y-79242719D01*
X163114800Y-79474716D01*
X162781282Y-79665708D01*
X162617441Y-79584910D01*
X162365363Y-79568388D01*
X162126151Y-79649590D01*
X161086921Y-80249590D01*
X160896992Y-80416153D01*
X160785262Y-80642719D01*
X160780454Y-80716081D01*
X160586959Y-80664235D01*
X160336502Y-80697208D01*
X159954967Y-80917487D01*
X159896860Y-81134344D01*
X160296485Y-81826515D01*
X160313806Y-81816515D01*
X160440806Y-82036485D01*
X160423485Y-82046485D01*
X160823110Y-82738656D01*
X161039967Y-82796763D01*
X161421502Y-82576483D01*
X161575286Y-82376067D01*
X161627134Y-82182573D01*
X161693071Y-82215090D01*
X161945149Y-82231612D01*
X162184361Y-82150410D01*
X163223591Y-81550410D01*
X163413520Y-81383847D01*
X163525250Y-81157281D01*
X163536556Y-80984783D01*
X163927704Y-80760789D01*
X164037815Y-80815090D01*
X164289893Y-80831612D01*
X164529105Y-80750410D01*
X165568335Y-80150410D01*
X165645256Y-80082952D01*
X165645257Y-90708941D01*
X165293199Y-91061000D01*
X162253847Y-91061000D01*
X162179000Y-91046112D01*
X162104153Y-91061000D01*
X162104148Y-91061000D01*
X161882463Y-91105096D01*
X161631071Y-91273071D01*
X161588671Y-91336527D01*
X161123199Y-91802000D01*
X160957126Y-91802000D01*
X160576720Y-91959569D01*
X160285569Y-92250720D01*
X160128000Y-92631126D01*
X160128000Y-93042874D01*
X160245274Y-93326000D01*
X160195126Y-93326000D01*
X159814720Y-93483569D01*
X159523569Y-93774720D01*
X159366000Y-94155126D01*
X159366000Y-94566874D01*
X159523569Y-94947280D01*
X159814720Y-95238431D01*
X160195126Y-95396000D01*
X160606874Y-95396000D01*
X160987280Y-95238431D01*
X161104711Y-95121000D01*
X161229198Y-95121000D01*
X161292000Y-95183802D01*
X161292000Y-95378763D01*
X161241874Y-95358000D01*
X160830126Y-95358000D01*
X160449720Y-95515569D01*
X160158569Y-95806720D01*
X160001000Y-96187126D01*
X160001000Y-96598874D01*
X160077833Y-96784365D01*
X159672199Y-97190000D01*
X156065614Y-97190000D01*
X156048157Y-97102235D01*
X155907809Y-96892191D01*
X155844666Y-96850000D01*
X155907809Y-96807809D01*
X156048157Y-96597765D01*
X156097440Y-96350000D01*
X156097440Y-95150000D01*
X156048157Y-94902235D01*
X155907809Y-94692191D01*
X155760000Y-94593427D01*
X155760000Y-94356573D01*
X155907809Y-94257809D01*
X156048157Y-94047765D01*
X156097440Y-93800000D01*
X156097440Y-92600000D01*
X156048157Y-92352235D01*
X155907809Y-92142191D01*
X155846680Y-92101346D01*
X155988327Y-91959698D01*
X156085000Y-91726309D01*
X156085000Y-91285750D01*
X155926250Y-91127000D01*
X155127000Y-91127000D01*
X155127000Y-91147000D01*
X154873000Y-91147000D01*
X154873000Y-91127000D01*
X154073750Y-91127000D01*
X153915000Y-91285750D01*
X153915000Y-91726309D01*
X154011673Y-91959698D01*
X154153320Y-92101346D01*
X154092191Y-92142191D01*
X153951843Y-92352235D01*
X153902560Y-92600000D01*
X153902560Y-93800000D01*
X153951843Y-94047765D01*
X154092191Y-94257809D01*
X154240000Y-94356573D01*
X154240001Y-94593427D01*
X154092191Y-94692191D01*
X153951843Y-94902235D01*
X153902560Y-95150000D01*
X153902560Y-96350000D01*
X153951843Y-96597765D01*
X154092191Y-96807809D01*
X154155334Y-96850000D01*
X154092191Y-96892191D01*
X153951843Y-97102235D01*
X153902560Y-97350000D01*
X153902560Y-98216348D01*
X152208205Y-96521994D01*
X152208205Y-90273691D01*
X153915000Y-90273691D01*
X153915000Y-90714250D01*
X154073750Y-90873000D01*
X154873000Y-90873000D01*
X154873000Y-89923750D01*
X155127000Y-89923750D01*
X155127000Y-90873000D01*
X155926250Y-90873000D01*
X156085000Y-90714250D01*
X156085000Y-90273691D01*
X155988327Y-90040302D01*
X155809699Y-89861673D01*
X155576310Y-89765000D01*
X155285750Y-89765000D01*
X155127000Y-89923750D01*
X154873000Y-89923750D01*
X154714250Y-89765000D01*
X154423690Y-89765000D01*
X154190301Y-89861673D01*
X154011673Y-90040302D01*
X153915000Y-90273691D01*
X152208205Y-90273691D01*
X152208205Y-85638750D01*
X153540000Y-85638750D01*
X153540000Y-85706310D01*
X153636673Y-85939699D01*
X153815302Y-86118327D01*
X154048691Y-86215000D01*
X154214250Y-86215000D01*
X154373000Y-86056250D01*
X154373000Y-85480000D01*
X153698750Y-85480000D01*
X153540000Y-85638750D01*
X152208205Y-85638750D01*
X152208205Y-84420000D01*
X153527560Y-84420000D01*
X153527560Y-84820000D01*
X153562999Y-84998166D01*
X153540000Y-85053690D01*
X153540000Y-85121250D01*
X153698750Y-85280000D01*
X153720470Y-85280000D01*
X153927235Y-85418157D01*
X154175000Y-85467440D01*
X154527560Y-85467440D01*
X154527560Y-85580000D01*
X154576843Y-85827765D01*
X154627000Y-85902830D01*
X154627000Y-86056250D01*
X154740001Y-86169251D01*
X154740000Y-86296289D01*
X154622569Y-86413720D01*
X154465000Y-86794126D01*
X154465000Y-87205874D01*
X154622569Y-87586280D01*
X154913720Y-87877431D01*
X155294126Y-88035000D01*
X155705874Y-88035000D01*
X156086280Y-87877431D01*
X156377431Y-87586280D01*
X156535000Y-87205874D01*
X156535000Y-86794126D01*
X156377431Y-86413720D01*
X156260000Y-86296289D01*
X156260000Y-86053050D01*
X156282809Y-86037809D01*
X156423157Y-85827765D01*
X156472440Y-85580000D01*
X156472440Y-85180000D01*
X156437001Y-85001834D01*
X156460000Y-84946310D01*
X156460000Y-84878750D01*
X156301250Y-84720000D01*
X156279530Y-84720000D01*
X156072765Y-84581843D01*
X155825000Y-84532560D01*
X155472440Y-84532560D01*
X155472440Y-84473000D01*
X155627000Y-84473000D01*
X155627000Y-84520000D01*
X156301250Y-84520000D01*
X156460000Y-84361250D01*
X156460000Y-84293690D01*
X156363327Y-84060301D01*
X156184698Y-83881673D01*
X155951309Y-83785000D01*
X155785750Y-83785000D01*
X155704836Y-83865914D01*
X155704836Y-83499280D01*
X155547267Y-83118874D01*
X155293360Y-82864967D01*
X159323334Y-82864967D01*
X159342304Y-82897825D01*
X159468614Y-83116599D01*
X159669029Y-83270383D01*
X159913041Y-83335765D01*
X160163498Y-83302792D01*
X160545033Y-83082513D01*
X160603140Y-82865656D01*
X160203515Y-82173485D01*
X159381440Y-82648110D01*
X159323334Y-82864967D01*
X155293360Y-82864967D01*
X155256116Y-82827723D01*
X154875710Y-82670154D01*
X154463962Y-82670154D01*
X154083556Y-82827723D01*
X153792405Y-83118874D01*
X153634836Y-83499280D01*
X153634836Y-83911028D01*
X153679434Y-84018698D01*
X153576843Y-84172235D01*
X153527560Y-84420000D01*
X152208205Y-84420000D01*
X152208205Y-81867944D01*
X158859330Y-81867944D01*
X158892304Y-82118401D01*
X159018613Y-82337175D01*
X159037584Y-82370033D01*
X159254440Y-82428140D01*
X160076515Y-81953515D01*
X159676890Y-81261344D01*
X159460033Y-81203237D01*
X159078498Y-81423517D01*
X158924714Y-81623933D01*
X158859330Y-81867944D01*
X152208205Y-81867944D01*
X152208205Y-75135750D01*
X155565000Y-75135750D01*
X155565000Y-75426310D01*
X155661673Y-75659699D01*
X155840302Y-75838327D01*
X156073691Y-75935000D01*
X156514250Y-75935000D01*
X156673000Y-75776250D01*
X156673000Y-74977000D01*
X155723750Y-74977000D01*
X155565000Y-75135750D01*
X152208205Y-75135750D01*
X152208205Y-74273690D01*
X155565000Y-74273690D01*
X155565000Y-74564250D01*
X155723750Y-74723000D01*
X156673000Y-74723000D01*
X156673000Y-73923750D01*
X156514250Y-73765000D01*
X156073691Y-73765000D01*
X155840302Y-73861673D01*
X155661673Y-74040301D01*
X155565000Y-74273690D01*
X152208205Y-74273690D01*
X152208205Y-73910596D01*
X153349802Y-72769000D01*
X155649441Y-72769000D01*
X155742191Y-72907809D01*
X155952235Y-73048157D01*
X156200000Y-73097440D01*
X157400000Y-73097440D01*
X157647765Y-73048157D01*
X157857809Y-72907809D01*
X157900000Y-72844666D01*
X157942191Y-72907809D01*
X158152235Y-73048157D01*
X158240000Y-73065614D01*
X158240001Y-73784386D01*
X158152235Y-73801843D01*
X157942191Y-73942191D01*
X157901346Y-74003320D01*
X157759698Y-73861673D01*
X157526309Y-73765000D01*
X157085750Y-73765000D01*
X156927000Y-73923750D01*
X156927000Y-74723000D01*
X156947000Y-74723000D01*
X156947000Y-74977000D01*
X156927000Y-74977000D01*
X156927000Y-75776250D01*
X157085750Y-75935000D01*
X157526309Y-75935000D01*
X157759698Y-75838327D01*
X157901346Y-75696680D01*
X157942191Y-75757809D01*
X158152235Y-75898157D01*
X158400000Y-75947440D01*
X159600000Y-75947440D01*
X159847765Y-75898157D01*
X160057809Y-75757809D01*
X160198157Y-75547765D01*
X160247440Y-75300000D01*
X160247440Y-74400000D01*
X160198157Y-74152235D01*
X160057809Y-73942191D01*
X159847765Y-73801843D01*
X159760000Y-73784386D01*
X159760000Y-73065614D01*
X159847765Y-73048157D01*
X160057809Y-72907809D01*
X160198157Y-72697765D01*
X160247440Y-72450000D01*
X160247440Y-71550000D01*
X160198157Y-71302235D01*
X160057809Y-71092191D01*
X159847765Y-70951843D01*
X159600000Y-70902560D01*
X158400000Y-70902560D01*
X158152235Y-70951843D01*
X157942191Y-71092191D01*
X157900000Y-71155334D01*
X157857809Y-71092191D01*
X157647765Y-70951843D01*
X157400000Y-70902560D01*
X156200000Y-70902560D01*
X155952235Y-70951843D01*
X155742191Y-71092191D01*
X155637414Y-71249000D01*
X153109846Y-71249000D01*
X153034999Y-71234112D01*
X152960152Y-71249000D01*
X152960148Y-71249000D01*
X152738463Y-71293096D01*
X152487071Y-71461071D01*
X152444671Y-71524527D01*
X150963733Y-73005466D01*
X150900277Y-73047866D01*
X150732302Y-73299258D01*
X150688372Y-73520111D01*
X150673317Y-73595795D01*
X150688206Y-73670647D01*
X150688206Y-81366173D01*
X150492595Y-81253237D01*
X150275738Y-81311344D01*
X149876113Y-82003515D01*
X149893434Y-82013515D01*
X149766434Y-82233485D01*
X149749113Y-82223485D01*
X149349488Y-82915656D01*
X149407595Y-83132513D01*
X149789130Y-83352792D01*
X150039587Y-83385765D01*
X150283599Y-83320383D01*
X150484014Y-83166599D01*
X150610324Y-82947825D01*
X150629294Y-82914967D01*
X150571189Y-82698113D01*
X150688206Y-82765673D01*
X150688205Y-88457392D01*
X144557372Y-82326560D01*
X144557372Y-80332952D01*
X144634293Y-80400410D01*
X145673523Y-81000410D01*
X145912735Y-81081612D01*
X146164813Y-81065090D01*
X146307034Y-80994954D01*
X146417788Y-81060961D01*
X146427378Y-81207281D01*
X146539108Y-81433847D01*
X146729037Y-81600410D01*
X147768267Y-82200410D01*
X148007479Y-82281612D01*
X148259557Y-82265090D01*
X148325494Y-82232573D01*
X148377342Y-82426067D01*
X148531126Y-82626483D01*
X148912661Y-82846763D01*
X149129518Y-82788656D01*
X149529143Y-82096485D01*
X149511822Y-82086485D01*
X149638822Y-81866515D01*
X149656143Y-81876515D01*
X150055768Y-81184344D01*
X149997661Y-80967487D01*
X149616126Y-80747208D01*
X149365669Y-80714235D01*
X149172174Y-80766081D01*
X149167366Y-80692719D01*
X149055636Y-80466153D01*
X148865707Y-80299590D01*
X147826477Y-79699590D01*
X147587265Y-79618388D01*
X147335187Y-79634910D01*
X147148496Y-79726976D01*
X147085516Y-79689441D01*
X147072622Y-79492719D01*
X146960892Y-79266153D01*
X146770963Y-79099590D01*
X145731733Y-78499590D01*
X145492521Y-78418388D01*
X145240443Y-78434910D01*
X145172333Y-78468498D01*
X145167366Y-78392719D01*
X145055636Y-78166153D01*
X144865707Y-77999590D01*
X143826477Y-77399590D01*
X143587265Y-77318388D01*
X143335187Y-77334910D01*
X143108621Y-77446640D01*
X142942058Y-77636569D01*
X142492058Y-78415991D01*
X142410856Y-78655203D01*
X142427378Y-78907281D01*
X142539108Y-79133847D01*
X142729037Y-79300410D01*
X143037372Y-79478428D01*
X143037373Y-81636160D01*
X140619673Y-79218461D01*
X140619673Y-73983720D01*
X141115318Y-73362837D01*
X141231378Y-73138457D01*
X141252736Y-72886743D01*
X141176142Y-72646016D01*
X141013256Y-72452925D01*
X140075432Y-71704269D01*
X139851052Y-71588209D01*
X139599338Y-71566851D01*
X139526969Y-71589877D01*
X139533390Y-71514207D01*
X139456796Y-71273480D01*
X139293910Y-71080389D01*
X138356086Y-70331733D01*
X138131706Y-70215673D01*
X137879992Y-70194315D01*
X137744185Y-70237526D01*
X137752736Y-70136743D01*
X137676142Y-69896016D01*
X137513256Y-69702925D01*
X136575432Y-68954269D01*
X136351052Y-68838209D01*
X136099338Y-68816851D01*
X136029278Y-68839142D01*
X136006948Y-68640070D01*
X135884862Y-68418912D01*
X135540556Y-68144056D01*
X135317449Y-68169081D01*
X134818813Y-68793712D01*
X134834443Y-68806189D01*
X134675978Y-69004696D01*
X134660347Y-68992218D01*
X134161712Y-69616848D01*
X134186737Y-69839955D01*
X134531043Y-70114811D01*
X134773754Y-70184866D01*
X134972826Y-70162537D01*
X134966610Y-70235793D01*
X135043204Y-70476520D01*
X135206090Y-70669611D01*
X136143914Y-71418267D01*
X136368294Y-71534327D01*
X136620008Y-71555685D01*
X136734248Y-71519336D01*
X136753791Y-71536334D01*
X136747264Y-71613257D01*
X136823858Y-71853984D01*
X136986744Y-72047075D01*
X137924568Y-72795731D01*
X138148948Y-72911791D01*
X138400662Y-72933149D01*
X138473031Y-72910123D01*
X138466610Y-72985793D01*
X138543204Y-73226520D01*
X138706090Y-73419611D01*
X139099674Y-73733805D01*
X139099673Y-79458415D01*
X139084785Y-79533262D01*
X139099673Y-79608109D01*
X139099673Y-79608113D01*
X139143769Y-79829798D01*
X139311744Y-80081191D01*
X139375203Y-80123593D01*
X147244163Y-87992554D01*
X137167613Y-87992554D01*
X137082292Y-87803147D01*
X136898292Y-87630057D01*
X136662060Y-87540556D01*
X136409559Y-87548271D01*
X135240315Y-87818212D01*
X135009987Y-87921967D01*
X134836897Y-88105967D01*
X134809991Y-88176983D01*
X134754678Y-88124949D01*
X134518446Y-88035448D01*
X134265945Y-88043163D01*
X133096701Y-88313104D01*
X132866373Y-88416859D01*
X132693283Y-88600859D01*
X132649812Y-88715599D01*
X132521578Y-88746033D01*
X132398292Y-88630057D01*
X132162060Y-88540556D01*
X131909559Y-88548271D01*
X130740315Y-88818212D01*
X130509987Y-88921967D01*
X130336897Y-89105967D01*
X130310850Y-89174718D01*
X130140969Y-89068565D01*
X129891815Y-89026871D01*
X129462547Y-89125975D01*
X129343577Y-89316367D01*
X129004648Y-89316367D01*
X128905695Y-89254534D01*
X128476427Y-89353638D01*
X128270767Y-89500335D01*
X128136899Y-89714567D01*
X128095204Y-89963721D01*
X116000752Y-89963721D01*
X115995011Y-89927476D01*
X115762579Y-87468609D01*
X115685000Y-85000000D01*
X115762579Y-82531391D01*
X115995011Y-80072524D01*
X116306636Y-78105000D01*
X129930908Y-78105000D01*
X130046161Y-78684418D01*
X130374375Y-79175625D01*
X130672761Y-79375000D01*
X130374375Y-79574375D01*
X130046161Y-80065582D01*
X129930908Y-80645000D01*
X130046161Y-81224418D01*
X130374375Y-81715625D01*
X130865582Y-82043839D01*
X131298744Y-82130000D01*
X131591256Y-82130000D01*
X132024418Y-82043839D01*
X132515625Y-81715625D01*
X132843839Y-81224418D01*
X132959092Y-80645000D01*
X132843839Y-80065582D01*
X132515625Y-79574375D01*
X132217239Y-79375000D01*
X132515625Y-79175625D01*
X132843839Y-78684418D01*
X132959092Y-78105000D01*
X132843839Y-77525582D01*
X132515625Y-77034375D01*
X132497381Y-77022184D01*
X132542765Y-77013157D01*
X132752809Y-76872809D01*
X132893157Y-76662765D01*
X132942440Y-76415000D01*
X132942440Y-74715000D01*
X132893157Y-74467235D01*
X132752809Y-74257191D01*
X132542765Y-74116843D01*
X132295000Y-74067560D01*
X130595000Y-74067560D01*
X130347235Y-74116843D01*
X130137191Y-74257191D01*
X129996843Y-74467235D01*
X129947560Y-74715000D01*
X129947560Y-76415000D01*
X129996843Y-76662765D01*
X130137191Y-76872809D01*
X130347235Y-77013157D01*
X130392619Y-77022184D01*
X130374375Y-77034375D01*
X130046161Y-77525582D01*
X129930908Y-78105000D01*
X116306636Y-78105000D01*
X116381377Y-77633104D01*
X116920153Y-75222757D01*
X117609213Y-72850997D01*
X118445837Y-70527183D01*
X119220800Y-68736349D01*
X133245546Y-68736349D01*
X133273706Y-68987394D01*
X133395792Y-69208552D01*
X133740098Y-69483408D01*
X133963205Y-69458383D01*
X134461841Y-68833752D01*
X133719983Y-68241535D01*
X133496876Y-68266560D01*
X133473205Y-68296212D01*
X133315601Y-68493639D01*
X133245546Y-68736349D01*
X119220800Y-68736349D01*
X119426724Y-68260487D01*
X119651203Y-67819921D01*
X133853423Y-67819921D01*
X133878448Y-68043028D01*
X134620307Y-68635246D01*
X135118942Y-68010616D01*
X135093917Y-67787509D01*
X134749611Y-67512653D01*
X134506900Y-67442598D01*
X134255856Y-67470757D01*
X134034697Y-67592843D01*
X133877093Y-67790270D01*
X133853423Y-67819921D01*
X119651203Y-67819921D01*
X120548003Y-66059854D01*
X121805248Y-63933970D01*
X123193497Y-61891223D01*
X124707272Y-59939676D01*
X126340598Y-58087031D01*
X126353938Y-58073691D01*
X153915000Y-58073691D01*
X153915000Y-58514250D01*
X154073750Y-58673000D01*
X154873000Y-58673000D01*
X154873000Y-57723750D01*
X155127000Y-57723750D01*
X155127000Y-58673000D01*
X155926250Y-58673000D01*
X156085000Y-58514250D01*
X156085000Y-58073691D01*
X155988327Y-57840302D01*
X155809699Y-57661673D01*
X155576310Y-57565000D01*
X155285750Y-57565000D01*
X155127000Y-57723750D01*
X154873000Y-57723750D01*
X154714250Y-57565000D01*
X154423690Y-57565000D01*
X154190301Y-57661673D01*
X154011673Y-57840302D01*
X153915000Y-58073691D01*
X126353938Y-58073691D01*
X128087031Y-56340598D01*
X129939676Y-54707272D01*
X131891223Y-53193497D01*
X133933970Y-51805248D01*
X136059854Y-50548003D01*
X138260487Y-49426724D01*
X140527183Y-48445837D01*
X142850997Y-47609213D01*
X145222757Y-46920153D01*
X147633104Y-46381377D01*
X150072524Y-45995011D01*
X152531391Y-45762579D01*
X155000000Y-45685000D01*
X157468609Y-45762579D01*
X157468609Y-45762579D01*
G37*
X157468609Y-45762579D02*
X159927476Y-45995011D01*
X162366896Y-46381377D01*
X164777243Y-46920153D01*
X167149003Y-47609213D01*
X169472817Y-48445837D01*
X171739513Y-49426724D01*
X173940146Y-50548003D01*
X176066030Y-51805248D01*
X178108777Y-53193497D01*
X180060324Y-54707272D01*
X181912969Y-56340598D01*
X183659402Y-58087031D01*
X185292728Y-59939676D01*
X186806503Y-61891223D01*
X188194752Y-63933970D01*
X189451997Y-66059854D01*
X190573276Y-68260487D01*
X191554163Y-70527183D01*
X192390787Y-72850997D01*
X193079847Y-75222757D01*
X193618623Y-77633104D01*
X194004989Y-80072524D01*
X194237421Y-82531391D01*
X194315000Y-85000000D01*
X194237421Y-87468609D01*
X194004989Y-89927476D01*
X193618623Y-92366896D01*
X193079847Y-94777243D01*
X192390787Y-97149003D01*
X191554163Y-99472817D01*
X190573276Y-101739513D01*
X189451997Y-103940146D01*
X188194752Y-106066030D01*
X186806503Y-108108777D01*
X185292728Y-110060324D01*
X183659402Y-111912969D01*
X181912969Y-113659402D01*
X180060324Y-115292728D01*
X178108777Y-116806503D01*
X176066030Y-118194752D01*
X173940146Y-119451997D01*
X171739513Y-120573276D01*
X169472817Y-121554163D01*
X167149003Y-122390787D01*
X164777243Y-123079847D01*
X162366896Y-123618623D01*
X159927476Y-124004989D01*
X157468609Y-124237421D01*
X155000000Y-124315000D01*
X152531391Y-124237421D01*
X150072524Y-124004989D01*
X147633104Y-123618623D01*
X145222757Y-123079847D01*
X142850997Y-122390787D01*
X140527183Y-121554163D01*
X138260487Y-120573276D01*
X136059854Y-119451997D01*
X133933970Y-118194752D01*
X131891223Y-116806503D01*
X129939676Y-115292728D01*
X129938726Y-115291890D01*
X152228524Y-115291890D01*
X152398355Y-115701924D01*
X152788642Y-116130183D01*
X153313108Y-116376486D01*
X153543000Y-116255819D01*
X153543000Y-115062000D01*
X152349845Y-115062000D01*
X152228524Y-115291890D01*
X129938726Y-115291890D01*
X128087031Y-113659402D01*
X126340598Y-111912969D01*
X124707272Y-110060324D01*
X124277101Y-109505750D01*
X129960000Y-109505750D01*
X129960000Y-110196310D01*
X130056673Y-110429699D01*
X130235302Y-110608327D01*
X130468691Y-110705000D01*
X131159250Y-110705000D01*
X131318000Y-110546250D01*
X131318000Y-109347000D01*
X131572000Y-109347000D01*
X131572000Y-110546250D01*
X131730750Y-110705000D01*
X132421309Y-110705000D01*
X132654698Y-110608327D01*
X132833327Y-110429699D01*
X132930000Y-110196310D01*
X132930000Y-109516044D01*
X143670686Y-109516044D01*
X143744889Y-109727933D01*
X143779077Y-109744387D01*
X144006706Y-109853937D01*
X144258930Y-109868039D01*
X144296163Y-109855000D01*
X152155908Y-109855000D01*
X152271161Y-110434418D01*
X152599375Y-110925625D01*
X152897761Y-111125000D01*
X152599375Y-111324375D01*
X152271161Y-111815582D01*
X152155908Y-112395000D01*
X152271161Y-112974418D01*
X152599375Y-113465625D01*
X152918478Y-113678843D01*
X152788642Y-113739817D01*
X152398355Y-114168076D01*
X152228524Y-114578110D01*
X152349845Y-114808000D01*
X153543000Y-114808000D01*
X153543000Y-114788000D01*
X153797000Y-114788000D01*
X153797000Y-114808000D01*
X153817000Y-114808000D01*
X153817000Y-115062000D01*
X153797000Y-115062000D01*
X153797000Y-116255819D01*
X154026892Y-116376486D01*
X154551358Y-116130183D01*
X154938647Y-115705214D01*
X155139375Y-116005625D01*
X155630582Y-116333839D01*
X156063744Y-116420000D01*
X156356256Y-116420000D01*
X156789418Y-116333839D01*
X157280625Y-116005625D01*
X157608839Y-115514418D01*
X157724092Y-114935000D01*
X157608839Y-114355582D01*
X157280625Y-113864375D01*
X156982239Y-113665000D01*
X157280625Y-113465625D01*
X157608839Y-112974418D01*
X157724092Y-112395000D01*
X157608839Y-111815582D01*
X157280625Y-111324375D01*
X157262381Y-111312184D01*
X157307765Y-111303157D01*
X157517809Y-111162809D01*
X157658157Y-110952765D01*
X157707440Y-110705000D01*
X157707440Y-109221136D01*
X165132281Y-109221136D01*
X165325409Y-109617108D01*
X165514609Y-109784498D01*
X165753465Y-109866743D01*
X166005612Y-109851321D01*
X166232665Y-109740580D01*
X166266766Y-109723948D01*
X166339858Y-109511673D01*
X165923734Y-108658493D01*
X165205373Y-109008861D01*
X165132281Y-109221136D01*
X157707440Y-109221136D01*
X157707440Y-109005000D01*
X157658157Y-108757235D01*
X157517809Y-108547191D01*
X157307765Y-108406843D01*
X157060000Y-108357560D01*
X155360000Y-108357560D01*
X155112235Y-108406843D01*
X154902191Y-108547191D01*
X154761843Y-108757235D01*
X154752816Y-108802619D01*
X154740625Y-108784375D01*
X154249418Y-108456161D01*
X153816256Y-108370000D01*
X153523744Y-108370000D01*
X153090582Y-108456161D01*
X152599375Y-108784375D01*
X152271161Y-109275582D01*
X152155908Y-109855000D01*
X144296163Y-109855000D01*
X144497352Y-109784544D01*
X144685673Y-109616165D01*
X144876725Y-109219188D01*
X144802523Y-109007299D01*
X144082337Y-108660696D01*
X143670686Y-109516044D01*
X132930000Y-109516044D01*
X132930000Y-109505750D01*
X132771250Y-109347000D01*
X131572000Y-109347000D01*
X131318000Y-109347000D01*
X130118750Y-109347000D01*
X129960000Y-109505750D01*
X124277101Y-109505750D01*
X123193497Y-108108777D01*
X121805248Y-106066030D01*
X120548003Y-103940146D01*
X119426724Y-101739513D01*
X118445837Y-99472817D01*
X118297214Y-99060000D01*
X129930908Y-99060000D01*
X130046161Y-99639418D01*
X130374375Y-100130625D01*
X130672761Y-100330000D01*
X130374375Y-100529375D01*
X130046161Y-101020582D01*
X129930908Y-101600000D01*
X130046161Y-102179418D01*
X130374375Y-102670625D01*
X130672761Y-102870000D01*
X130374375Y-103069375D01*
X130046161Y-103560582D01*
X129930908Y-104140000D01*
X130046161Y-104719418D01*
X130374375Y-105210625D01*
X130672761Y-105410000D01*
X130374375Y-105609375D01*
X130046161Y-106100582D01*
X129930908Y-106680000D01*
X130046161Y-107259418D01*
X130374375Y-107750625D01*
X130396033Y-107765096D01*
X130235302Y-107831673D01*
X130056673Y-108010301D01*
X129960000Y-108243690D01*
X129960000Y-108934250D01*
X130118750Y-109093000D01*
X131318000Y-109093000D01*
X131318000Y-109073000D01*
X131572000Y-109073000D01*
X131572000Y-109093000D01*
X132771250Y-109093000D01*
X132930000Y-108934250D01*
X132930000Y-108927350D01*
X142716234Y-108927350D01*
X142799728Y-109165772D01*
X142968106Y-109354093D01*
X143195736Y-109463644D01*
X143229923Y-109480097D01*
X143441813Y-109405894D01*
X143853464Y-108550547D01*
X143133278Y-108203945D01*
X142921388Y-108278148D01*
X142730336Y-108675125D01*
X142716234Y-108927350D01*
X132930000Y-108927350D01*
X132930000Y-108243690D01*
X132833327Y-108010301D01*
X132654698Y-107831673D01*
X132493967Y-107765096D01*
X132515625Y-107750625D01*
X132843839Y-107259418D01*
X132959092Y-106680000D01*
X132843839Y-106100582D01*
X132515625Y-105609375D01*
X132217239Y-105410000D01*
X132515625Y-105210625D01*
X132843839Y-104719418D01*
X132959092Y-104140000D01*
X132843839Y-103560582D01*
X132515625Y-103069375D01*
X132217239Y-102870000D01*
X132515625Y-102670625D01*
X132843839Y-102179418D01*
X132959092Y-101600000D01*
X132843839Y-101020582D01*
X132515625Y-100529375D01*
X132217239Y-100330000D01*
X132515625Y-100130625D01*
X132843839Y-99639418D01*
X132959092Y-99060000D01*
X132843839Y-98480582D01*
X132515625Y-97989375D01*
X132024418Y-97661161D01*
X131591256Y-97575000D01*
X131298744Y-97575000D01*
X130865582Y-97661161D01*
X130374375Y-97989375D01*
X130046161Y-98480582D01*
X129930908Y-99060000D01*
X118297214Y-99060000D01*
X117609213Y-97149003D01*
X116920153Y-94777243D01*
X116810292Y-94285750D01*
X142565000Y-94285750D01*
X142565000Y-94576310D01*
X142661673Y-94809699D01*
X142840302Y-94988327D01*
X143073691Y-95085000D01*
X143514250Y-95085000D01*
X143673000Y-94926250D01*
X143673000Y-94127000D01*
X142723750Y-94127000D01*
X142565000Y-94285750D01*
X116810292Y-94285750D01*
X116617599Y-93423690D01*
X142565000Y-93423690D01*
X142565000Y-93714250D01*
X142723750Y-93873000D01*
X143673000Y-93873000D01*
X143673000Y-93073750D01*
X143514250Y-92915000D01*
X143073691Y-92915000D01*
X142840302Y-93011673D01*
X142661673Y-93190301D01*
X142565000Y-93423690D01*
X116617599Y-93423690D01*
X116381377Y-92366896D01*
X116133790Y-90803687D01*
X128289126Y-90803687D01*
X128297661Y-90840655D01*
X128354488Y-91086800D01*
X128501184Y-91292460D01*
X128715417Y-91426327D01*
X128964571Y-91468021D01*
X129393839Y-91368917D01*
X129512809Y-91178525D01*
X129333017Y-90399760D01*
X128408096Y-90613295D01*
X128289126Y-90803687D01*
X116133790Y-90803687D01*
X116000752Y-89963721D01*
X128095204Y-89963721D01*
X128152031Y-90209866D01*
X128160566Y-90246834D01*
X128350958Y-90365805D01*
X129275879Y-90152270D01*
X129096087Y-89373505D01*
X129004648Y-89316367D01*
X129343577Y-89316367D01*
X129523369Y-90095132D01*
X129542856Y-90090633D01*
X129599995Y-90338123D01*
X129580507Y-90342622D01*
X129760299Y-91121387D01*
X129950691Y-91240358D01*
X130379959Y-91141254D01*
X130585619Y-90994557D01*
X130691773Y-90824677D01*
X130745322Y-90875051D01*
X130981554Y-90964552D01*
X131234055Y-90956837D01*
X132403299Y-90686896D01*
X132633627Y-90583141D01*
X132806717Y-90399141D01*
X132872725Y-90224915D01*
X132932467Y-90210737D01*
X133101708Y-90369943D01*
X133337940Y-90459444D01*
X133590441Y-90451729D01*
X134759685Y-90181788D01*
X134990013Y-90078033D01*
X135163103Y-89894033D01*
X135190009Y-89823017D01*
X135245322Y-89875051D01*
X135481554Y-89964552D01*
X135734055Y-89956837D01*
X136903299Y-89686896D01*
X137133627Y-89583141D01*
X137200029Y-89512554D01*
X148127753Y-89512554D01*
X149267176Y-90651978D01*
X149267177Y-97501324D01*
X149252288Y-97576176D01*
X149267177Y-97651028D01*
X149297384Y-97802889D01*
X149311273Y-97872713D01*
X149366255Y-97955000D01*
X147193323Y-97955000D01*
X147198157Y-97947765D01*
X147247440Y-97700000D01*
X147247440Y-96800000D01*
X147198157Y-96552235D01*
X147057809Y-96342191D01*
X146847765Y-96201843D01*
X146760000Y-96184386D01*
X146760000Y-95065614D01*
X146847765Y-95048157D01*
X147057809Y-94907809D01*
X147198157Y-94697765D01*
X147247440Y-94450000D01*
X147247440Y-93550000D01*
X147198157Y-93302235D01*
X147057809Y-93092191D01*
X146847765Y-92951843D01*
X146600000Y-92902560D01*
X145400000Y-92902560D01*
X145152235Y-92951843D01*
X144942191Y-93092191D01*
X144901346Y-93153320D01*
X144759698Y-93011673D01*
X144526309Y-92915000D01*
X144085750Y-92915000D01*
X143927000Y-93073750D01*
X143927000Y-93873000D01*
X143947000Y-93873000D01*
X143947000Y-94127000D01*
X143927000Y-94127000D01*
X143927000Y-94926250D01*
X144085750Y-95085000D01*
X144526309Y-95085000D01*
X144759698Y-94988327D01*
X144901346Y-94846680D01*
X144942191Y-94907809D01*
X145152235Y-95048157D01*
X145240000Y-95065614D01*
X145240001Y-96184386D01*
X145152235Y-96201843D01*
X144942191Y-96342191D01*
X144900000Y-96405334D01*
X144857809Y-96342191D01*
X144647765Y-96201843D01*
X144400000Y-96152560D01*
X143200000Y-96152560D01*
X142952235Y-96201843D01*
X142742191Y-96342191D01*
X142601843Y-96552235D01*
X142552560Y-96800000D01*
X142552560Y-97700000D01*
X142601843Y-97947765D01*
X142742191Y-98157809D01*
X142952235Y-98298157D01*
X143040001Y-98315615D01*
X143040001Y-98350144D01*
X143025111Y-98425000D01*
X143084096Y-98721537D01*
X143252071Y-98972929D01*
X143481282Y-99126083D01*
X143554669Y-99199470D01*
X143597071Y-99262929D01*
X143848463Y-99430904D01*
X144070148Y-99475000D01*
X144070153Y-99475000D01*
X144145000Y-99489888D01*
X144219847Y-99475000D01*
X149835199Y-99475000D01*
X152109013Y-101748815D01*
X148135413Y-101748815D01*
X148125356Y-101731775D01*
X147923473Y-101579922D01*
X147112504Y-101189629D01*
X146867877Y-101126592D01*
X146617748Y-101161968D01*
X146400196Y-101290371D01*
X146248343Y-101492254D01*
X145727952Y-102573547D01*
X145664915Y-102818174D01*
X145700291Y-103068303D01*
X145738891Y-103133703D01*
X145663698Y-103144338D01*
X145446146Y-103272741D01*
X145294293Y-103474624D01*
X144773902Y-104555917D01*
X144710865Y-104800544D01*
X144746241Y-105050673D01*
X144796969Y-105136621D01*
X144617748Y-105161968D01*
X144400196Y-105290371D01*
X144248343Y-105492254D01*
X143727952Y-106573547D01*
X143664915Y-106818174D01*
X143700291Y-107068303D01*
X143737660Y-107131617D01*
X143548598Y-107197826D01*
X143360277Y-107366205D01*
X143169225Y-107763182D01*
X143243427Y-107975071D01*
X143963613Y-108321674D01*
X143972286Y-108303652D01*
X144201159Y-108413801D01*
X144192486Y-108431823D01*
X144912672Y-108778425D01*
X145124562Y-108704222D01*
X145315614Y-108307245D01*
X145329716Y-108055020D01*
X145263507Y-107865957D01*
X145336302Y-107855662D01*
X145553854Y-107727259D01*
X145705707Y-107525376D01*
X146226098Y-106444083D01*
X146289135Y-106199456D01*
X146253759Y-105949327D01*
X146203031Y-105863379D01*
X146382252Y-105838032D01*
X146599804Y-105709629D01*
X146751657Y-105507746D01*
X147272048Y-104426453D01*
X147335085Y-104181826D01*
X147299709Y-103931697D01*
X147261109Y-103866297D01*
X147336302Y-103855662D01*
X147553854Y-103727259D01*
X147705707Y-103525376D01*
X147829181Y-103268815D01*
X160306338Y-103268815D01*
X160381185Y-103283703D01*
X160456032Y-103268815D01*
X160456037Y-103268815D01*
X160677722Y-103224719D01*
X160929114Y-103056744D01*
X160971516Y-102993285D01*
X161714892Y-102249910D01*
X161768397Y-102453137D01*
X162294442Y-103531689D01*
X162447350Y-103732774D01*
X162665571Y-103860037D01*
X162740818Y-103870277D01*
X162702561Y-103935878D01*
X162668496Y-104186189D01*
X162732813Y-104430483D01*
X163258858Y-105509035D01*
X163411766Y-105710120D01*
X163629987Y-105837383D01*
X163795649Y-105859928D01*
X163738145Y-105958532D01*
X163704080Y-106208843D01*
X163768397Y-106453137D01*
X164294442Y-107531689D01*
X164447350Y-107732774D01*
X164665571Y-107860037D01*
X164738419Y-107869951D01*
X164673202Y-108059356D01*
X164688624Y-108311503D01*
X164881752Y-108707475D01*
X165094027Y-108780567D01*
X165572609Y-108547147D01*
X166152028Y-108547147D01*
X166568152Y-109400327D01*
X166780427Y-109473419D01*
X166814528Y-109456787D01*
X167041580Y-109346046D01*
X167208970Y-109156846D01*
X167291214Y-108917990D01*
X167275792Y-108665843D01*
X167082664Y-108269871D01*
X166870389Y-108196779D01*
X166152028Y-108547147D01*
X165572609Y-108547147D01*
X165812388Y-108430199D01*
X165803621Y-108412223D01*
X166031914Y-108300877D01*
X166040682Y-108318853D01*
X166759043Y-107968485D01*
X166832135Y-107756210D01*
X166639007Y-107360238D01*
X166449807Y-107192848D01*
X166260402Y-107127630D01*
X166297439Y-107064122D01*
X166331504Y-106813811D01*
X166267187Y-106569517D01*
X165741142Y-105490965D01*
X165588234Y-105289880D01*
X165370013Y-105162617D01*
X165204351Y-105140072D01*
X165261855Y-105041468D01*
X165295920Y-104791157D01*
X165231603Y-104546863D01*
X164705558Y-103468311D01*
X164552650Y-103267226D01*
X164334429Y-103139963D01*
X164259182Y-103129723D01*
X164297439Y-103064122D01*
X164331504Y-102813811D01*
X164267187Y-102569517D01*
X163777792Y-101566109D01*
X163777792Y-101457009D01*
X166484473Y-98750329D01*
X166547929Y-98707929D01*
X166715904Y-98456537D01*
X166760000Y-98234852D01*
X166760000Y-98234847D01*
X166767731Y-98195980D01*
X166877431Y-98086280D01*
X167035000Y-97705874D01*
X167035000Y-97294126D01*
X166877431Y-96913720D01*
X166586280Y-96622569D01*
X166205874Y-96465000D01*
X165794126Y-96465000D01*
X165522024Y-96577708D01*
X165628452Y-96471280D01*
X165786021Y-96090874D01*
X165786021Y-95679126D01*
X165628452Y-95298720D01*
X165337301Y-95007569D01*
X164956895Y-94850000D01*
X164786011Y-94850000D01*
X164786011Y-94627661D01*
X164848939Y-94585614D01*
X165016914Y-94334222D01*
X165045324Y-94191397D01*
X165178441Y-94058280D01*
X165336010Y-93677874D01*
X165336010Y-93266126D01*
X165178441Y-92885720D01*
X164887290Y-92594569D01*
X164854531Y-92581000D01*
X165533153Y-92581000D01*
X165608000Y-92595888D01*
X165682847Y-92581000D01*
X165682852Y-92581000D01*
X165904537Y-92536904D01*
X166155929Y-92368929D01*
X166198331Y-92305470D01*
X166889729Y-91614073D01*
X166953185Y-91571673D01*
X167121160Y-91320281D01*
X167165256Y-91098596D01*
X167165256Y-91098592D01*
X167180144Y-91023745D01*
X167165256Y-90948898D01*
X167165256Y-79228427D01*
X167473591Y-79050410D01*
X167515000Y-79014095D01*
X167515000Y-80155000D01*
X167478544Y-81120745D01*
X167334069Y-81265220D01*
X167176500Y-81645626D01*
X167176500Y-82057374D01*
X167334069Y-82437780D01*
X167625220Y-82728931D01*
X168005626Y-82886500D01*
X168417374Y-82886500D01*
X168465000Y-82866773D01*
X168465000Y-83205874D01*
X168622569Y-83586280D01*
X168913720Y-83877431D01*
X169294126Y-84035000D01*
X169705874Y-84035000D01*
X169802138Y-83995126D01*
X171177000Y-83995126D01*
X171177000Y-84406874D01*
X171334569Y-84787280D01*
X171625720Y-85078431D01*
X171960001Y-85216894D01*
X171960000Y-88698153D01*
X171945112Y-88773000D01*
X171960000Y-88847847D01*
X171960000Y-88847851D01*
X172004096Y-89069536D01*
X172172071Y-89320929D01*
X172235530Y-89363331D01*
X172612966Y-89740767D01*
X172655138Y-89803881D01*
X172694691Y-89907190D01*
X172868422Y-90090585D01*
X173099111Y-90193536D01*
X174269290Y-90459394D01*
X174521816Y-90466227D01*
X174757735Y-90375902D01*
X174812866Y-90323676D01*
X174840019Y-90394596D01*
X175013750Y-90577991D01*
X175244439Y-90680942D01*
X176414618Y-90946800D01*
X176667144Y-90953633D01*
X176903063Y-90863308D01*
X177063174Y-90711634D01*
X177125525Y-90726537D01*
X177194691Y-90907190D01*
X177368422Y-91090585D01*
X177599111Y-91193536D01*
X178769290Y-91459394D01*
X179021816Y-91466227D01*
X179257735Y-91375902D01*
X179311107Y-91325342D01*
X179417853Y-91494850D01*
X179624024Y-91640827D01*
X180053635Y-91738433D01*
X180154249Y-91675072D01*
X180491299Y-91675072D01*
X180610933Y-91865048D01*
X181040544Y-91962653D01*
X181289551Y-91920089D01*
X181503315Y-91785475D01*
X181649293Y-91579304D01*
X181705260Y-91332962D01*
X181713666Y-91295964D01*
X181594032Y-91105989D01*
X180668371Y-90895684D01*
X180491299Y-91675072D01*
X180154249Y-91675072D01*
X180243611Y-91618798D01*
X180420683Y-90839410D01*
X180401180Y-90834979D01*
X180443661Y-90647996D01*
X180724645Y-90647996D01*
X181650305Y-90858301D01*
X181840281Y-90738666D01*
X181848687Y-90701668D01*
X181904654Y-90455327D01*
X181862090Y-90206320D01*
X181727475Y-89992556D01*
X181521304Y-89846579D01*
X181091693Y-89748973D01*
X180901717Y-89868608D01*
X180724645Y-90647996D01*
X180443661Y-90647996D01*
X180457454Y-90587291D01*
X180476957Y-90591722D01*
X180654029Y-89812334D01*
X180534395Y-89622358D01*
X180104784Y-89524753D01*
X179855777Y-89567317D01*
X179686268Y-89674062D01*
X179659981Y-89605404D01*
X179486250Y-89422009D01*
X179255561Y-89319058D01*
X178085382Y-89053200D01*
X177832856Y-89046367D01*
X177596937Y-89136692D01*
X177479173Y-89248251D01*
X177353303Y-89218165D01*
X177305309Y-89092810D01*
X177131578Y-88909415D01*
X176900889Y-88806464D01*
X175730710Y-88540606D01*
X175478184Y-88533773D01*
X175242265Y-88624098D01*
X175187134Y-88676324D01*
X175159981Y-88605404D01*
X174986250Y-88422009D01*
X174755561Y-88319058D01*
X173585382Y-88053200D01*
X173480000Y-88050349D01*
X173480000Y-84783846D01*
X173494888Y-84708999D01*
X173480000Y-84634152D01*
X173480000Y-84634148D01*
X173435904Y-84412463D01*
X173394102Y-84349902D01*
X173310329Y-84224526D01*
X173310327Y-84224524D01*
X173267929Y-84161071D01*
X173247000Y-84147087D01*
X173247000Y-83995126D01*
X173089431Y-83614720D01*
X172798280Y-83323569D01*
X172417874Y-83166000D01*
X172006126Y-83166000D01*
X171625720Y-83323569D01*
X171334569Y-83614720D01*
X171177000Y-83995126D01*
X169802138Y-83995126D01*
X170086280Y-83877431D01*
X170377431Y-83586280D01*
X170535000Y-83205874D01*
X170535000Y-82794126D01*
X170400327Y-82468996D01*
X170400327Y-75994126D01*
X171685000Y-75994126D01*
X171685000Y-76405874D01*
X171842569Y-76786280D01*
X171960001Y-76903712D01*
X171960000Y-78671289D01*
X171842569Y-78788720D01*
X171685000Y-79169126D01*
X171685000Y-79580874D01*
X171842569Y-79961280D01*
X172133720Y-80252431D01*
X172514126Y-80410000D01*
X172925874Y-80410000D01*
X173306280Y-80252431D01*
X173597431Y-79961280D01*
X173755000Y-79580874D01*
X173755000Y-79169126D01*
X173597431Y-78788720D01*
X173480000Y-78671289D01*
X173480000Y-76903711D01*
X173597431Y-76786280D01*
X173755000Y-76405874D01*
X173755000Y-75994126D01*
X173597431Y-75613720D01*
X173306280Y-75322569D01*
X172925874Y-75165000D01*
X172514126Y-75165000D01*
X172133720Y-75322569D01*
X171842569Y-75613720D01*
X171685000Y-75994126D01*
X170400327Y-75994126D01*
X170400327Y-73233805D01*
X170793910Y-72919611D01*
X170956796Y-72726520D01*
X171033390Y-72485793D01*
X171026969Y-72410123D01*
X171099338Y-72433149D01*
X171351052Y-72411791D01*
X171575432Y-72295731D01*
X172513256Y-71547075D01*
X172676142Y-71353984D01*
X172752736Y-71113257D01*
X172744185Y-71012474D01*
X172879992Y-71055685D01*
X173131706Y-71034327D01*
X173356086Y-70918267D01*
X174293910Y-70169611D01*
X174456796Y-69976520D01*
X174533390Y-69735793D01*
X174527174Y-69662537D01*
X174726246Y-69684866D01*
X174968957Y-69614811D01*
X175313263Y-69339955D01*
X175338288Y-69116848D01*
X174839653Y-68492218D01*
X174824022Y-68504696D01*
X174687561Y-68333752D01*
X175038159Y-68333752D01*
X175536795Y-68958383D01*
X175759902Y-68983408D01*
X176104208Y-68708552D01*
X176226294Y-68487394D01*
X176254454Y-68236349D01*
X176184399Y-67993639D01*
X176026795Y-67796212D01*
X176003124Y-67766560D01*
X175780017Y-67741535D01*
X175038159Y-68333752D01*
X174687561Y-68333752D01*
X174665557Y-68306189D01*
X174681187Y-68293712D01*
X174182551Y-67669081D01*
X173959444Y-67644056D01*
X173615138Y-67918912D01*
X173493052Y-68140070D01*
X173470722Y-68339142D01*
X173400662Y-68316851D01*
X173148948Y-68338209D01*
X172924568Y-68454269D01*
X171986744Y-69202925D01*
X171823858Y-69396016D01*
X171747264Y-69636743D01*
X171755815Y-69737526D01*
X171620008Y-69694315D01*
X171368294Y-69715673D01*
X171143914Y-69831733D01*
X170206090Y-70580389D01*
X170043204Y-70773480D01*
X169966610Y-71014207D01*
X169973031Y-71089877D01*
X169900662Y-71066851D01*
X169648948Y-71088209D01*
X169424568Y-71204269D01*
X168486744Y-71952925D01*
X168323858Y-72146016D01*
X168247264Y-72386743D01*
X168268622Y-72638457D01*
X168384682Y-72862837D01*
X168880327Y-73483720D01*
X168880327Y-73832972D01*
X168865329Y-73810526D01*
X168865327Y-73810524D01*
X168822929Y-73747071D01*
X168759476Y-73704673D01*
X162565418Y-67510616D01*
X174381058Y-67510616D01*
X174879693Y-68135246D01*
X175621552Y-67543028D01*
X175646577Y-67319921D01*
X175622907Y-67290270D01*
X175465303Y-67092843D01*
X175244144Y-66970757D01*
X174993100Y-66942598D01*
X174750389Y-67012653D01*
X174406083Y-67287509D01*
X174381058Y-67510616D01*
X162565418Y-67510616D01*
X161170331Y-66115530D01*
X161127929Y-66052071D01*
X160876537Y-65884096D01*
X160654852Y-65840000D01*
X160654847Y-65840000D01*
X160580000Y-65825112D01*
X160505153Y-65840000D01*
X156065614Y-65840000D01*
X156048157Y-65752235D01*
X155907809Y-65542191D01*
X155844666Y-65500000D01*
X155907809Y-65457809D01*
X156048157Y-65247765D01*
X156097440Y-65000000D01*
X156097440Y-63800000D01*
X156048157Y-63552235D01*
X155907809Y-63342191D01*
X155760000Y-63243427D01*
X155760000Y-62156573D01*
X155907809Y-62057809D01*
X156048157Y-61847765D01*
X156097440Y-61600000D01*
X156097440Y-60400000D01*
X156048157Y-60152235D01*
X155907809Y-59942191D01*
X155846680Y-59901346D01*
X155988327Y-59759698D01*
X156085000Y-59526309D01*
X156085000Y-59085750D01*
X155926250Y-58927000D01*
X155127000Y-58927000D01*
X155127000Y-58947000D01*
X154873000Y-58947000D01*
X154873000Y-58927000D01*
X154073750Y-58927000D01*
X153915000Y-59085750D01*
X153915000Y-59526309D01*
X154011673Y-59759698D01*
X154153320Y-59901346D01*
X154092191Y-59942191D01*
X153951843Y-60152235D01*
X153902560Y-60400000D01*
X153902560Y-61600000D01*
X153951843Y-61847765D01*
X154092191Y-62057809D01*
X154240000Y-62156573D01*
X154240001Y-63243427D01*
X154092191Y-63342191D01*
X153951843Y-63552235D01*
X153902560Y-63800000D01*
X153902560Y-65000000D01*
X153951843Y-65247765D01*
X154092191Y-65457809D01*
X154155334Y-65500000D01*
X154092191Y-65542191D01*
X153951843Y-65752235D01*
X153902560Y-66000000D01*
X153902560Y-67200000D01*
X153951843Y-67447765D01*
X154092191Y-67657809D01*
X154302235Y-67798157D01*
X154550000Y-67847440D01*
X155450000Y-67847440D01*
X155697765Y-67798157D01*
X155907809Y-67657809D01*
X156048157Y-67447765D01*
X156065614Y-67360000D01*
X160265199Y-67360000D01*
X167515001Y-74609804D01*
X167515000Y-77827255D01*
X167260570Y-77386569D01*
X167094007Y-77196640D01*
X166867441Y-77084910D01*
X166615363Y-77068388D01*
X166376151Y-77149590D01*
X165336921Y-77749590D01*
X165146992Y-77916153D01*
X165035262Y-78142719D01*
X165030295Y-78218498D01*
X164962185Y-78184910D01*
X164710107Y-78168388D01*
X164470895Y-78249590D01*
X163431665Y-78849590D01*
X163241736Y-79016153D01*
X163130006Y-79242719D01*
X163114800Y-79474716D01*
X162781282Y-79665708D01*
X162617441Y-79584910D01*
X162365363Y-79568388D01*
X162126151Y-79649590D01*
X161086921Y-80249590D01*
X160896992Y-80416153D01*
X160785262Y-80642719D01*
X160780454Y-80716081D01*
X160586959Y-80664235D01*
X160336502Y-80697208D01*
X159954967Y-80917487D01*
X159896860Y-81134344D01*
X160296485Y-81826515D01*
X160313806Y-81816515D01*
X160440806Y-82036485D01*
X160423485Y-82046485D01*
X160823110Y-82738656D01*
X161039967Y-82796763D01*
X161421502Y-82576483D01*
X161575286Y-82376067D01*
X161627134Y-82182573D01*
X161693071Y-82215090D01*
X161945149Y-82231612D01*
X162184361Y-82150410D01*
X163223591Y-81550410D01*
X163413520Y-81383847D01*
X163525250Y-81157281D01*
X163536556Y-80984783D01*
X163927704Y-80760789D01*
X164037815Y-80815090D01*
X164289893Y-80831612D01*
X164529105Y-80750410D01*
X165568335Y-80150410D01*
X165645256Y-80082952D01*
X165645257Y-90708941D01*
X165293199Y-91061000D01*
X162253847Y-91061000D01*
X162179000Y-91046112D01*
X162104153Y-91061000D01*
X162104148Y-91061000D01*
X161882463Y-91105096D01*
X161631071Y-91273071D01*
X161588671Y-91336527D01*
X161123199Y-91802000D01*
X160957126Y-91802000D01*
X160576720Y-91959569D01*
X160285569Y-92250720D01*
X160128000Y-92631126D01*
X160128000Y-93042874D01*
X160245274Y-93326000D01*
X160195126Y-93326000D01*
X159814720Y-93483569D01*
X159523569Y-93774720D01*
X159366000Y-94155126D01*
X159366000Y-94566874D01*
X159523569Y-94947280D01*
X159814720Y-95238431D01*
X160195126Y-95396000D01*
X160606874Y-95396000D01*
X160987280Y-95238431D01*
X161104711Y-95121000D01*
X161229198Y-95121000D01*
X161292000Y-95183802D01*
X161292000Y-95378763D01*
X161241874Y-95358000D01*
X160830126Y-95358000D01*
X160449720Y-95515569D01*
X160158569Y-95806720D01*
X160001000Y-96187126D01*
X160001000Y-96598874D01*
X160077833Y-96784365D01*
X159672199Y-97190000D01*
X156065614Y-97190000D01*
X156048157Y-97102235D01*
X155907809Y-96892191D01*
X155844666Y-96850000D01*
X155907809Y-96807809D01*
X156048157Y-96597765D01*
X156097440Y-96350000D01*
X156097440Y-95150000D01*
X156048157Y-94902235D01*
X155907809Y-94692191D01*
X155760000Y-94593427D01*
X155760000Y-94356573D01*
X155907809Y-94257809D01*
X156048157Y-94047765D01*
X156097440Y-93800000D01*
X156097440Y-92600000D01*
X156048157Y-92352235D01*
X155907809Y-92142191D01*
X155846680Y-92101346D01*
X155988327Y-91959698D01*
X156085000Y-91726309D01*
X156085000Y-91285750D01*
X155926250Y-91127000D01*
X155127000Y-91127000D01*
X155127000Y-91147000D01*
X154873000Y-91147000D01*
X154873000Y-91127000D01*
X154073750Y-91127000D01*
X153915000Y-91285750D01*
X153915000Y-91726309D01*
X154011673Y-91959698D01*
X154153320Y-92101346D01*
X154092191Y-92142191D01*
X153951843Y-92352235D01*
X153902560Y-92600000D01*
X153902560Y-93800000D01*
X153951843Y-94047765D01*
X154092191Y-94257809D01*
X154240000Y-94356573D01*
X154240001Y-94593427D01*
X154092191Y-94692191D01*
X153951843Y-94902235D01*
X153902560Y-95150000D01*
X153902560Y-96350000D01*
X153951843Y-96597765D01*
X154092191Y-96807809D01*
X154155334Y-96850000D01*
X154092191Y-96892191D01*
X153951843Y-97102235D01*
X153902560Y-97350000D01*
X153902560Y-98216348D01*
X152208205Y-96521994D01*
X152208205Y-90273691D01*
X153915000Y-90273691D01*
X153915000Y-90714250D01*
X154073750Y-90873000D01*
X154873000Y-90873000D01*
X154873000Y-89923750D01*
X155127000Y-89923750D01*
X155127000Y-90873000D01*
X155926250Y-90873000D01*
X156085000Y-90714250D01*
X156085000Y-90273691D01*
X155988327Y-90040302D01*
X155809699Y-89861673D01*
X155576310Y-89765000D01*
X155285750Y-89765000D01*
X155127000Y-89923750D01*
X154873000Y-89923750D01*
X154714250Y-89765000D01*
X154423690Y-89765000D01*
X154190301Y-89861673D01*
X154011673Y-90040302D01*
X153915000Y-90273691D01*
X152208205Y-90273691D01*
X152208205Y-85638750D01*
X153540000Y-85638750D01*
X153540000Y-85706310D01*
X153636673Y-85939699D01*
X153815302Y-86118327D01*
X154048691Y-86215000D01*
X154214250Y-86215000D01*
X154373000Y-86056250D01*
X154373000Y-85480000D01*
X153698750Y-85480000D01*
X153540000Y-85638750D01*
X152208205Y-85638750D01*
X152208205Y-84420000D01*
X153527560Y-84420000D01*
X153527560Y-84820000D01*
X153562999Y-84998166D01*
X153540000Y-85053690D01*
X153540000Y-85121250D01*
X153698750Y-85280000D01*
X153720470Y-85280000D01*
X153927235Y-85418157D01*
X154175000Y-85467440D01*
X154527560Y-85467440D01*
X154527560Y-85580000D01*
X154576843Y-85827765D01*
X154627000Y-85902830D01*
X154627000Y-86056250D01*
X154740001Y-86169251D01*
X154740000Y-86296289D01*
X154622569Y-86413720D01*
X154465000Y-86794126D01*
X154465000Y-87205874D01*
X154622569Y-87586280D01*
X154913720Y-87877431D01*
X155294126Y-88035000D01*
X155705874Y-88035000D01*
X156086280Y-87877431D01*
X156377431Y-87586280D01*
X156535000Y-87205874D01*
X156535000Y-86794126D01*
X156377431Y-86413720D01*
X156260000Y-86296289D01*
X156260000Y-86053050D01*
X156282809Y-86037809D01*
X156423157Y-85827765D01*
X156472440Y-85580000D01*
X156472440Y-85180000D01*
X156437001Y-85001834D01*
X156460000Y-84946310D01*
X156460000Y-84878750D01*
X156301250Y-84720000D01*
X156279530Y-84720000D01*
X156072765Y-84581843D01*
X155825000Y-84532560D01*
X155472440Y-84532560D01*
X155472440Y-84473000D01*
X155627000Y-84473000D01*
X155627000Y-84520000D01*
X156301250Y-84520000D01*
X156460000Y-84361250D01*
X156460000Y-84293690D01*
X156363327Y-84060301D01*
X156184698Y-83881673D01*
X155951309Y-83785000D01*
X155785750Y-83785000D01*
X155704836Y-83865914D01*
X155704836Y-83499280D01*
X155547267Y-83118874D01*
X155293360Y-82864967D01*
X159323334Y-82864967D01*
X159342304Y-82897825D01*
X159468614Y-83116599D01*
X159669029Y-83270383D01*
X159913041Y-83335765D01*
X160163498Y-83302792D01*
X160545033Y-83082513D01*
X160603140Y-82865656D01*
X160203515Y-82173485D01*
X159381440Y-82648110D01*
X159323334Y-82864967D01*
X155293360Y-82864967D01*
X155256116Y-82827723D01*
X154875710Y-82670154D01*
X154463962Y-82670154D01*
X154083556Y-82827723D01*
X153792405Y-83118874D01*
X153634836Y-83499280D01*
X153634836Y-83911028D01*
X153679434Y-84018698D01*
X153576843Y-84172235D01*
X153527560Y-84420000D01*
X152208205Y-84420000D01*
X152208205Y-81867944D01*
X158859330Y-81867944D01*
X158892304Y-82118401D01*
X159018613Y-82337175D01*
X159037584Y-82370033D01*
X159254440Y-82428140D01*
X160076515Y-81953515D01*
X159676890Y-81261344D01*
X159460033Y-81203237D01*
X159078498Y-81423517D01*
X158924714Y-81623933D01*
X158859330Y-81867944D01*
X152208205Y-81867944D01*
X152208205Y-75135750D01*
X155565000Y-75135750D01*
X155565000Y-75426310D01*
X155661673Y-75659699D01*
X155840302Y-75838327D01*
X156073691Y-75935000D01*
X156514250Y-75935000D01*
X156673000Y-75776250D01*
X156673000Y-74977000D01*
X155723750Y-74977000D01*
X155565000Y-75135750D01*
X152208205Y-75135750D01*
X152208205Y-74273690D01*
X155565000Y-74273690D01*
X155565000Y-74564250D01*
X155723750Y-74723000D01*
X156673000Y-74723000D01*
X156673000Y-73923750D01*
X156514250Y-73765000D01*
X156073691Y-73765000D01*
X155840302Y-73861673D01*
X155661673Y-74040301D01*
X155565000Y-74273690D01*
X152208205Y-74273690D01*
X152208205Y-73910596D01*
X153349802Y-72769000D01*
X155649441Y-72769000D01*
X155742191Y-72907809D01*
X155952235Y-73048157D01*
X156200000Y-73097440D01*
X157400000Y-73097440D01*
X157647765Y-73048157D01*
X157857809Y-72907809D01*
X157900000Y-72844666D01*
X157942191Y-72907809D01*
X158152235Y-73048157D01*
X158240000Y-73065614D01*
X158240001Y-73784386D01*
X158152235Y-73801843D01*
X157942191Y-73942191D01*
X157901346Y-74003320D01*
X157759698Y-73861673D01*
X157526309Y-73765000D01*
X157085750Y-73765000D01*
X156927000Y-73923750D01*
X156927000Y-74723000D01*
X156947000Y-74723000D01*
X156947000Y-74977000D01*
X156927000Y-74977000D01*
X156927000Y-75776250D01*
X157085750Y-75935000D01*
X157526309Y-75935000D01*
X157759698Y-75838327D01*
X157901346Y-75696680D01*
X157942191Y-75757809D01*
X158152235Y-75898157D01*
X158400000Y-75947440D01*
X159600000Y-75947440D01*
X159847765Y-75898157D01*
X160057809Y-75757809D01*
X160198157Y-75547765D01*
X160247440Y-75300000D01*
X160247440Y-74400000D01*
X160198157Y-74152235D01*
X160057809Y-73942191D01*
X159847765Y-73801843D01*
X159760000Y-73784386D01*
X159760000Y-73065614D01*
X159847765Y-73048157D01*
X160057809Y-72907809D01*
X160198157Y-72697765D01*
X160247440Y-72450000D01*
X160247440Y-71550000D01*
X160198157Y-71302235D01*
X160057809Y-71092191D01*
X159847765Y-70951843D01*
X159600000Y-70902560D01*
X158400000Y-70902560D01*
X158152235Y-70951843D01*
X157942191Y-71092191D01*
X157900000Y-71155334D01*
X157857809Y-71092191D01*
X157647765Y-70951843D01*
X157400000Y-70902560D01*
X156200000Y-70902560D01*
X155952235Y-70951843D01*
X155742191Y-71092191D01*
X155637414Y-71249000D01*
X153109846Y-71249000D01*
X153034999Y-71234112D01*
X152960152Y-71249000D01*
X152960148Y-71249000D01*
X152738463Y-71293096D01*
X152487071Y-71461071D01*
X152444671Y-71524527D01*
X150963733Y-73005466D01*
X150900277Y-73047866D01*
X150732302Y-73299258D01*
X150688372Y-73520111D01*
X150673317Y-73595795D01*
X150688206Y-73670647D01*
X150688206Y-81366173D01*
X150492595Y-81253237D01*
X150275738Y-81311344D01*
X149876113Y-82003515D01*
X149893434Y-82013515D01*
X149766434Y-82233485D01*
X149749113Y-82223485D01*
X149349488Y-82915656D01*
X149407595Y-83132513D01*
X149789130Y-83352792D01*
X150039587Y-83385765D01*
X150283599Y-83320383D01*
X150484014Y-83166599D01*
X150610324Y-82947825D01*
X150629294Y-82914967D01*
X150571189Y-82698113D01*
X150688206Y-82765673D01*
X150688205Y-88457392D01*
X144557372Y-82326560D01*
X144557372Y-80332952D01*
X144634293Y-80400410D01*
X145673523Y-81000410D01*
X145912735Y-81081612D01*
X146164813Y-81065090D01*
X146307034Y-80994954D01*
X146417788Y-81060961D01*
X146427378Y-81207281D01*
X146539108Y-81433847D01*
X146729037Y-81600410D01*
X147768267Y-82200410D01*
X148007479Y-82281612D01*
X148259557Y-82265090D01*
X148325494Y-82232573D01*
X148377342Y-82426067D01*
X148531126Y-82626483D01*
X148912661Y-82846763D01*
X149129518Y-82788656D01*
X149529143Y-82096485D01*
X149511822Y-82086485D01*
X149638822Y-81866515D01*
X149656143Y-81876515D01*
X150055768Y-81184344D01*
X149997661Y-80967487D01*
X149616126Y-80747208D01*
X149365669Y-80714235D01*
X149172174Y-80766081D01*
X149167366Y-80692719D01*
X149055636Y-80466153D01*
X148865707Y-80299590D01*
X147826477Y-79699590D01*
X147587265Y-79618388D01*
X147335187Y-79634910D01*
X147148496Y-79726976D01*
X147085516Y-79689441D01*
X147072622Y-79492719D01*
X146960892Y-79266153D01*
X146770963Y-79099590D01*
X145731733Y-78499590D01*
X145492521Y-78418388D01*
X145240443Y-78434910D01*
X145172333Y-78468498D01*
X145167366Y-78392719D01*
X145055636Y-78166153D01*
X144865707Y-77999590D01*
X143826477Y-77399590D01*
X143587265Y-77318388D01*
X143335187Y-77334910D01*
X143108621Y-77446640D01*
X142942058Y-77636569D01*
X142492058Y-78415991D01*
X142410856Y-78655203D01*
X142427378Y-78907281D01*
X142539108Y-79133847D01*
X142729037Y-79300410D01*
X143037372Y-79478428D01*
X143037373Y-81636160D01*
X140619673Y-79218461D01*
X140619673Y-73983720D01*
X141115318Y-73362837D01*
X141231378Y-73138457D01*
X141252736Y-72886743D01*
X141176142Y-72646016D01*
X141013256Y-72452925D01*
X140075432Y-71704269D01*
X139851052Y-71588209D01*
X139599338Y-71566851D01*
X139526969Y-71589877D01*
X139533390Y-71514207D01*
X139456796Y-71273480D01*
X139293910Y-71080389D01*
X138356086Y-70331733D01*
X138131706Y-70215673D01*
X137879992Y-70194315D01*
X137744185Y-70237526D01*
X137752736Y-70136743D01*
X137676142Y-69896016D01*
X137513256Y-69702925D01*
X136575432Y-68954269D01*
X136351052Y-68838209D01*
X136099338Y-68816851D01*
X136029278Y-68839142D01*
X136006948Y-68640070D01*
X135884862Y-68418912D01*
X135540556Y-68144056D01*
X135317449Y-68169081D01*
X134818813Y-68793712D01*
X134834443Y-68806189D01*
X134675978Y-69004696D01*
X134660347Y-68992218D01*
X134161712Y-69616848D01*
X134186737Y-69839955D01*
X134531043Y-70114811D01*
X134773754Y-70184866D01*
X134972826Y-70162537D01*
X134966610Y-70235793D01*
X135043204Y-70476520D01*
X135206090Y-70669611D01*
X136143914Y-71418267D01*
X136368294Y-71534327D01*
X136620008Y-71555685D01*
X136734248Y-71519336D01*
X136753791Y-71536334D01*
X136747264Y-71613257D01*
X136823858Y-71853984D01*
X136986744Y-72047075D01*
X137924568Y-72795731D01*
X138148948Y-72911791D01*
X138400662Y-72933149D01*
X138473031Y-72910123D01*
X138466610Y-72985793D01*
X138543204Y-73226520D01*
X138706090Y-73419611D01*
X139099674Y-73733805D01*
X139099673Y-79458415D01*
X139084785Y-79533262D01*
X139099673Y-79608109D01*
X139099673Y-79608113D01*
X139143769Y-79829798D01*
X139311744Y-80081191D01*
X139375203Y-80123593D01*
X147244163Y-87992554D01*
X137167613Y-87992554D01*
X137082292Y-87803147D01*
X136898292Y-87630057D01*
X136662060Y-87540556D01*
X136409559Y-87548271D01*
X135240315Y-87818212D01*
X135009987Y-87921967D01*
X134836897Y-88105967D01*
X134809991Y-88176983D01*
X134754678Y-88124949D01*
X134518446Y-88035448D01*
X134265945Y-88043163D01*
X133096701Y-88313104D01*
X132866373Y-88416859D01*
X132693283Y-88600859D01*
X132649812Y-88715599D01*
X132521578Y-88746033D01*
X132398292Y-88630057D01*
X132162060Y-88540556D01*
X131909559Y-88548271D01*
X130740315Y-88818212D01*
X130509987Y-88921967D01*
X130336897Y-89105967D01*
X130310850Y-89174718D01*
X130140969Y-89068565D01*
X129891815Y-89026871D01*
X129462547Y-89125975D01*
X129343577Y-89316367D01*
X129004648Y-89316367D01*
X128905695Y-89254534D01*
X128476427Y-89353638D01*
X128270767Y-89500335D01*
X128136899Y-89714567D01*
X128095204Y-89963721D01*
X116000752Y-89963721D01*
X115995011Y-89927476D01*
X115762579Y-87468609D01*
X115685000Y-85000000D01*
X115762579Y-82531391D01*
X115995011Y-80072524D01*
X116306636Y-78105000D01*
X129930908Y-78105000D01*
X130046161Y-78684418D01*
X130374375Y-79175625D01*
X130672761Y-79375000D01*
X130374375Y-79574375D01*
X130046161Y-80065582D01*
X129930908Y-80645000D01*
X130046161Y-81224418D01*
X130374375Y-81715625D01*
X130865582Y-82043839D01*
X131298744Y-82130000D01*
X131591256Y-82130000D01*
X132024418Y-82043839D01*
X132515625Y-81715625D01*
X132843839Y-81224418D01*
X132959092Y-80645000D01*
X132843839Y-80065582D01*
X132515625Y-79574375D01*
X132217239Y-79375000D01*
X132515625Y-79175625D01*
X132843839Y-78684418D01*
X132959092Y-78105000D01*
X132843839Y-77525582D01*
X132515625Y-77034375D01*
X132497381Y-77022184D01*
X132542765Y-77013157D01*
X132752809Y-76872809D01*
X132893157Y-76662765D01*
X132942440Y-76415000D01*
X132942440Y-74715000D01*
X132893157Y-74467235D01*
X132752809Y-74257191D01*
X132542765Y-74116843D01*
X132295000Y-74067560D01*
X130595000Y-74067560D01*
X130347235Y-74116843D01*
X130137191Y-74257191D01*
X129996843Y-74467235D01*
X129947560Y-74715000D01*
X129947560Y-76415000D01*
X129996843Y-76662765D01*
X130137191Y-76872809D01*
X130347235Y-77013157D01*
X130392619Y-77022184D01*
X130374375Y-77034375D01*
X130046161Y-77525582D01*
X129930908Y-78105000D01*
X116306636Y-78105000D01*
X116381377Y-77633104D01*
X116920153Y-75222757D01*
X117609213Y-72850997D01*
X118445837Y-70527183D01*
X119220800Y-68736349D01*
X133245546Y-68736349D01*
X133273706Y-68987394D01*
X133395792Y-69208552D01*
X133740098Y-69483408D01*
X133963205Y-69458383D01*
X134461841Y-68833752D01*
X133719983Y-68241535D01*
X133496876Y-68266560D01*
X133473205Y-68296212D01*
X133315601Y-68493639D01*
X133245546Y-68736349D01*
X119220800Y-68736349D01*
X119426724Y-68260487D01*
X119651203Y-67819921D01*
X133853423Y-67819921D01*
X133878448Y-68043028D01*
X134620307Y-68635246D01*
X135118942Y-68010616D01*
X135093917Y-67787509D01*
X134749611Y-67512653D01*
X134506900Y-67442598D01*
X134255856Y-67470757D01*
X134034697Y-67592843D01*
X133877093Y-67790270D01*
X133853423Y-67819921D01*
X119651203Y-67819921D01*
X120548003Y-66059854D01*
X121805248Y-63933970D01*
X123193497Y-61891223D01*
X124707272Y-59939676D01*
X126340598Y-58087031D01*
X126353938Y-58073691D01*
X153915000Y-58073691D01*
X153915000Y-58514250D01*
X154073750Y-58673000D01*
X154873000Y-58673000D01*
X154873000Y-57723750D01*
X155127000Y-57723750D01*
X155127000Y-58673000D01*
X155926250Y-58673000D01*
X156085000Y-58514250D01*
X156085000Y-58073691D01*
X155988327Y-57840302D01*
X155809699Y-57661673D01*
X155576310Y-57565000D01*
X155285750Y-57565000D01*
X155127000Y-57723750D01*
X154873000Y-57723750D01*
X154714250Y-57565000D01*
X154423690Y-57565000D01*
X154190301Y-57661673D01*
X154011673Y-57840302D01*
X153915000Y-58073691D01*
X126353938Y-58073691D01*
X128087031Y-56340598D01*
X129939676Y-54707272D01*
X131891223Y-53193497D01*
X133933970Y-51805248D01*
X136059854Y-50548003D01*
X138260487Y-49426724D01*
X140527183Y-48445837D01*
X142850997Y-47609213D01*
X145222757Y-46920153D01*
X147633104Y-46381377D01*
X150072524Y-45995011D01*
X152531391Y-45762579D01*
X155000000Y-45685000D01*
X157468609Y-45762579D01*
G04 #@! TD*
M02*
