M48
;DRILL file {KiCad (5.0.0)} date 02/21/19 00:35:28
;FORMAT={-:-/ absolute / metric / decimal}
FMAT,2
METRIC,TZ
T1C0.400
T2C1.000
%
G90
G05
M71
T1
X154.67Y-83.705
X155.5Y-87.
X156.972Y-85.725
X156.972Y-92.329
X158.494Y-101.184
X160.401Y-94.361
X161.036Y-96.393
X161.163Y-92.837
X162.814Y-93.345
X163.576Y-92.583
X164.301Y-93.472
X164.751Y-95.885
X166.Y-97.5
X168.212Y-81.852
X168.91Y-107.315
X169.5Y-83.
X169.545Y-85.09
X169.545Y-86.36
X172.212Y-84.201
X172.72Y-76.2
X172.72Y-79.375
T2
X131.445Y-99.06
X131.445Y-101.6
X131.445Y-104.14
X131.445Y-106.68
X131.445Y-109.22
X131.445Y-75.565
X131.445Y-78.105
X131.445Y-80.645
X153.67Y-109.855
X153.67Y-112.395
X153.67Y-114.935
X156.21Y-109.855
X156.21Y-112.395
X156.21Y-114.935
T0
M30
